<?xml version="1.0" encoding="UTF-8"?>
<!DOCTYPE svg PUBLIC "-//W3C//DTD SVG 1.1//EN" "http://www.w3.org/Graphics/SVG/1.1/DTD/svg11.dtd">
<svg xmlns="http://www.w3.org/2000/svg" version="1.1" width="200px" height="200px" style="shape-rendering:geometricPrecision; text-rendering:geometricPrecision; image-rendering:optimizeQuality; fill-rule:evenodd; clip-rule:evenodd" xmlns:xlink="http://www.w3.org/1999/xlink">
<g><path style="opacity:0.973" fill="#202e1d" d="M 47.5,-0.5 C 53.8333,-0.5 60.1667,-0.5 66.5,-0.5C 70.9612,0.544759 74.9612,2.54476 78.5,5.5C 63.3016,-1.42589 48.3016,-1.09256 33.5,6.5C 37.6507,3.09133 42.3173,0.757997 47.5,-0.5 Z"/></g>
<g><path style="opacity:1" fill="#358e29" d="M 78.5,5.5 C 80.1667,6.5 81.5,7.83333 82.5,9.5C 85.2304,14.4041 88.5637,18.9041 92.5,23C 90.9419,23.21 89.6085,23.71 88.5,24.5C 66.7986,23.3458 45.1319,23.3458 23.5,24.5C 23.9595,21.1226 24.6261,17.7893 25.5,14.5C 28.5,12.1667 31.1667,9.5 33.5,6.5C 48.3016,-1.09256 63.3016,-1.42589 78.5,5.5 Z"/></g>
<g><path style="opacity:0.753" fill="#192b15" d="M 138.5,6.5 C 126.236,4.61803 113.903,4.11803 101.5,5C 96.4786,6.5155 91.4786,8.0155 86.5,9.5C 94.534,4.61481 103.367,2.28147 113,2.5C 119.176,2.87966 125.343,3.37966 131.5,4C 134.104,4.39034 136.438,5.22367 138.5,6.5 Z"/></g>
<g><path style="opacity:1" fill="#368f2a" d="M 138.5,6.5 C 141.231,8.37236 144.231,10.039 147.5,11.5C 149.143,15.3005 149.81,19.3005 149.5,23.5C 148.5,23.5 147.5,23.5 146.5,23.5C 129.163,23.6666 111.83,23.4999 94.5,23C 91.6667,19.5 88.8333,16 86,12.5C 85.5304,11.4232 85.6971,10.4232 86.5,9.5C 91.4786,8.0155 96.4786,6.5155 101.5,5C 113.903,4.11803 126.236,4.61803 138.5,6.5 Z"/></g>
<g><path style="opacity:0.553" fill="#2e3d29" d="M 138.5,6.5 C 142.284,6.8891 145.284,8.55577 147.5,11.5C 144.231,10.039 141.231,8.37236 138.5,6.5 Z"/></g>
<g><path style="opacity:1" fill="#2a4124" d="M 33.5,6.5 C 31.1667,9.5 28.5,12.1667 25.5,14.5C 27.1667,10.8333 29.8333,8.16667 33.5,6.5 Z"/></g>
<g><path style="opacity:0.349" fill="#1e2c1b" d="M 147.5,11.5 C 148.79,12.0577 149.623,13.0577 150,14.5C 150.395,17.2066 150.895,19.8733 151.5,22.5C 151.5,22.8333 151.5,23.1667 151.5,23.5C 150.833,23.5 150.167,23.5 149.5,23.5C 149.81,19.3005 149.143,15.3005 147.5,11.5 Z"/></g>
<g><path style="opacity:1" fill="#2d5a29" d="M 88.5,24.5 C 66.6491,24.4766 44.6491,24.8099 22.5,25.5C 22.5,24.8333 22.8333,24.5 23.5,24.5C 45.1319,23.3458 66.7986,23.3458 88.5,24.5 Z"/></g>
<g><path style="opacity:1" fill="#2a5b24" d="M 82.5,9.5 C 83.8333,9.5 85.1667,9.5 86.5,9.5C 85.6971,10.4232 85.5304,11.4232 86,12.5C 88.8333,16 91.6667,19.5 94.5,23C 111.83,23.4999 129.163,23.6666 146.5,23.5C 127.345,25.5888 108.012,25.9222 88.5,24.5C 89.6085,23.71 90.9419,23.21 92.5,23C 88.5637,18.9041 85.2304,14.4041 82.5,9.5 Z"/></g>
<g><path style="opacity:1" fill="#d1edee" d="M 146.5,23.5 C 147.5,23.5 148.5,23.5 149.5,23.5C 150.167,23.5 150.833,23.5 151.5,23.5C 159.57,23.5088 166.237,26.5088 171.5,32.5C 171.351,33.552 171.517,34.552 172,35.5C 176.929,36.7644 180.263,39.7644 182,44.5C 182.667,48.8333 182.667,53.1667 182,57.5C 180.35,61.7568 178.85,66.0901 177.5,70.5C 175.704,71.7927 174.037,73.2927 172.5,75C 165.644,76.7596 158.978,79.0929 152.5,82C 147.845,82.4992 143.179,82.6658 138.5,82.5C 136.228,81.6814 133.894,81.0147 131.5,80.5C 128.405,77.8052 125.071,75.4719 121.5,73.5C 120.5,72.8333 119.5,72.1667 118.5,71.5C 117.062,67.7264 114.395,65.3931 110.5,64.5C 106.624,64.7096 104.291,66.7096 103.5,70.5C 101.674,72.1475 100.34,74.1475 99.5,76.5C 97.3658,80.4605 94.0325,82.6271 89.5,83C 79.756,83.8057 70.0893,83.639 60.5,82.5C 58.0314,81.6829 55.3647,81.1829 52.5,81C 50.2643,78.7159 47.5976,77.2159 44.5,76.5C 45.5736,77.8846 46.9069,79.0513 48.5,80C 46.8659,80.4935 45.1992,80.6602 43.5,80.5C 42.8333,80.5 42.1667,80.5 41.5,80.5C 39.6796,78.5516 37.3462,77.5516 34.5,77.5C 28.0603,74.7807 21.727,71.7807 15.5,68.5C 10.3485,64.0508 8.34851,58.3841 9.5,51.5C 11.228,52.379 13.0614,53.0457 15,53.5C 18.522,52.8036 19.3553,50.8036 17.5,47.5C 16.6667,47.1667 15.8333,46.8333 15,46.5C 13.175,46.9434 11.3417,47.2767 9.5,47.5C 9.5,46.8333 9.5,46.1667 9.5,45.5C 9.02174,35.6548 13.3551,28.9882 22.5,25.5C 44.6491,24.8099 66.6491,24.4766 88.5,24.5C 108.012,25.9222 127.345,25.5888 146.5,23.5 Z"/></g>
<g><path style="opacity:0.378" fill="#4b4b4b" d="M 151.5,23.5 C 151.5,23.1667 151.5,22.8333 151.5,22.5C 160.557,21.4943 167.224,24.8276 171.5,32.5C 166.237,26.5088 159.57,23.5088 151.5,23.5 Z"/></g>
<g><path style="opacity:0.902" fill="#444745" d="M 25.5,14.5 C 24.6261,17.7893 23.9595,21.1226 23.5,24.5C 22.8333,24.5 22.5,24.8333 22.5,25.5C 13.3551,28.9882 9.02174,35.6548 9.5,45.5C 8.83333,45.5 8.16667,45.5 7.5,45.5C 7.71565,35.1186 12.549,27.7853 22,23.5C 22.1191,19.9955 23.2857,16.9955 25.5,14.5 Z"/></g>
<g><path style="opacity:1" fill="#749180" d="M 122.5,30.5 C 138.009,29.729 153.342,30.8957 168.5,34C 144.887,32.6794 121.22,32.1794 97.5,32.5C 105.833,31.8333 114.167,31.1667 122.5,30.5 Z"/></g>
<g><path style="opacity:1" fill="#5b7762" d="M 122.5,30.5 C 114.167,31.1667 105.833,31.8333 97.5,32.5C 80.8024,32.8565 64.1357,33.5231 47.5,34.5C 48.6808,32.9328 50.3474,32.0995 52.5,32C 75.8265,31.1298 99.1599,30.6298 122.5,30.5 Z"/></g>
<g><path style="opacity:1" fill="#308924" d="M 99.5,36.5 C 102.165,38.6402 104.498,41.1402 106.5,44C 106.272,44.3988 105.938,44.5654 105.5,44.5C 103.299,43.4336 100.965,42.767 98.5,42.5C 92.8034,41.1174 87.1367,40.1174 81.5,39.5C 76.3978,38.0821 71.0645,37.2487 65.5,37C 76.8284,36.5001 88.1618,36.3335 99.5,36.5 Z"/></g>
<g><path style="opacity:1" fill="#368f29" d="M 117.5,47.5 C 114.692,48.9288 111.692,49.5955 108.5,49.5C 108.662,47.4727 108.495,45.4727 108,43.5C 106.122,41.9571 104.622,40.1238 103.5,38C 104.094,37.5357 104.761,37.369 105.5,37.5C 106.593,39.5561 108.426,40.5561 111,40.5C 112.5,40.3333 114,40.1667 115.5,40C 117.054,38.108 118.888,36.608 121,35.5C 132.8,36.3032 144.633,36.8032 156.5,37C 159.623,37.2065 162.623,37.8732 165.5,39C 150.121,38.2645 135.121,40.2645 120.5,45C 119.058,45.3768 118.058,46.2101 117.5,47.5 Z"/></g>
<g><path style="opacity:1" fill="#245d1d" d="M 90.5,35.5 C 93.7131,35.19 96.7131,35.5233 99.5,36.5C 88.1618,36.3335 76.8284,36.5001 65.5,37C 71.0645,37.2487 76.3978,38.0821 81.5,39.5C 73.8483,38.6259 66.1816,38.4593 58.5,39C 54.0704,41.2691 49.4037,42.7691 44.5,43.5C 44.1667,43.5 43.8333,43.5 43.5,43.5C 44.2899,42.2058 45.2899,41.0391 46.5,40C 50.3153,38.0913 54.3153,36.758 58.5,36C 69.1615,35.5002 79.8281,35.3335 90.5,35.5 Z"/></g>
<g><path style="opacity:1" fill="#f0f0f0" d="M 81.5,39.5 C 87.1367,40.1174 92.8034,41.1174 98.5,42.5C 100.509,44.0652 102.843,45.0652 105.5,45.5C 107.088,47.1133 108.088,49.1133 108.5,51.5C 107.547,54.7012 106.214,57.7012 104.5,60.5C 102.839,61.7971 101.172,63.1304 99.5,64.5C 98.8333,64.5 98.1667,64.5 97.5,64.5C 99.5449,49.0545 92.8782,43.2211 77.5,47C 68.8609,48.1293 64.8609,52.9626 65.5,61.5C 64.8333,61.5 64.1667,61.5 63.5,61.5C 62.1007,60.1103 60.4341,59.1103 58.5,58.5C 57.0697,57.4625 55.403,56.7959 53.5,56.5C 49.5649,54.5628 46.2316,51.8961 43.5,48.5C 42.2655,46.6017 42.5989,44.935 44.5,43.5C 49.4037,42.7691 54.0704,41.2691 58.5,39C 66.1816,38.4593 73.8483,38.6259 81.5,39.5 Z"/></g>
<g><path style="opacity:1" fill="#21521b" d="M 175.5,43.5 C 175.5,44.1667 175.5,44.8333 175.5,45.5C 174.404,43.8968 173.07,42.3968 171.5,41C 153.044,39.7221 135.044,41.8888 117.5,47.5C 118.058,46.2101 119.058,45.3768 120.5,45C 135.121,40.2645 150.121,38.2645 165.5,39C 162.623,37.8732 159.623,37.2065 156.5,37C 144.633,36.8032 132.8,36.3032 121,35.5C 118.888,36.608 117.054,38.108 115.5,40C 114,40.1667 112.5,40.3333 111,40.5C 108.426,40.5561 106.593,39.5561 105.5,37.5C 110.665,40.8335 114.998,40.0002 118.5,35C 132.834,34.8532 147.168,35.1865 161.5,36C 165.046,37.5167 168.712,38.85 172.5,40C 173.71,41.0391 174.71,42.2058 175.5,43.5 Z"/></g>
<g><path style="opacity:1" fill="#348c27" d="M 175.5,45.5 C 175.5,46.8333 174.833,47.5 173.5,47.5C 172.791,46.596 171.791,46.2627 170.5,46.5C 162.01,45.3431 153.343,45.1764 144.5,46C 143.944,46.3826 143.611,46.8826 143.5,47.5C 137.693,47.8621 132.026,48.8621 126.5,50.5C 122.192,51.3676 117.859,51.5343 113.5,51C 115.093,50.0513 116.426,48.8846 117.5,47.5C 135.044,41.8888 153.044,39.7221 171.5,41C 173.07,42.3968 174.404,43.8968 175.5,45.5 Z"/></g>
<g><path style="opacity:1" fill="#797f78" d="M 98.5,42.5 C 100.965,42.767 103.299,43.4336 105.5,44.5C 105.5,44.8333 105.5,45.1667 105.5,45.5C 102.843,45.0652 100.509,44.0652 98.5,42.5 Z"/></g>
<g><path style="opacity:1" fill="#124c0c" d="M 7.5,45.5 C 8.16667,45.5 8.83333,45.5 9.5,45.5C 9.5,46.1667 9.5,46.8333 9.5,47.5C 8.16667,47.5 7.5,46.8333 7.5,45.5 Z"/></g>
<g><path style="opacity:1" fill="#0e0e0e" d="M 97.5,64.5 C 87.1993,66.1023 76.866,65.6023 66.5,63C 65.944,62.6174 65.6107,62.1174 65.5,61.5C 64.8609,52.9626 68.8609,48.1293 77.5,47C 92.8782,43.2211 99.5449,49.0545 97.5,64.5 Z"/></g>
<g><path style="opacity:0.988" fill="#151916" d="M 7.5,45.5 C 7.5,46.8333 8.16667,47.5 9.5,47.5C 11.3417,47.2767 13.175,46.9434 15,46.5C 15.8333,46.8333 16.6667,47.1667 17.5,47.5C 19.3553,50.8036 18.522,52.8036 15,53.5C 13.0614,53.0457 11.228,52.379 9.5,51.5C 7.71626,50.2801 6.04959,50.2801 4.5,51.5C 4.5,52.1667 4.16667,52.5 3.5,52.5C 1.44081,48.288 2.77414,45.9547 7.5,45.5 Z"/></g>
<g><path style="opacity:1" fill="#f3f3f3" d="M 143.5,47.5 C 145.527,47.3379 147.527,47.5045 149.5,48C 142.519,52.9826 136.186,58.6493 130.5,65C 131.908,65.3152 133.241,64.9819 134.5,64C 136.795,60.7026 139.462,57.7026 142.5,55C 143.816,54.4719 144.483,54.9719 144.5,56.5C 142.172,60.4634 139.838,64.4634 137.5,68.5C 133.627,70.4302 129.294,71.0969 124.5,70.5C 121.758,64.3578 117.258,60.0244 111,57.5C 109.838,58.1868 108.672,58.3534 107.5,58C 108.26,56.5589 108.926,55.0589 109.5,53.5C 109.957,52.7025 110.624,52.3691 111.5,52.5C 115.514,52.6655 119.514,52.4988 123.5,52C 124.737,51.7679 125.737,51.2679 126.5,50.5C 132.026,48.8621 137.693,47.8621 143.5,47.5 Z"/></g>
<g><path style="opacity:1" fill="#f5f5f5" d="M 170.5,46.5 C 171.791,46.2627 172.791,46.596 173.5,47.5C 174.74,48.973 175.74,50.6396 176.5,52.5C 175.649,55.5777 174.649,58.5777 173.5,61.5C 172.5,63.1667 171.167,64.5 169.5,65.5C 167.972,64.1979 166.972,62.5313 166.5,60.5C 165.281,51.4566 160.281,48.2899 151.5,51C 149.308,51.926 147.308,53.0927 145.5,54.5C 147.239,51.59 149.572,49.09 152.5,47C 158.491,46.5005 164.491,46.3338 170.5,46.5 Z"/></g>
<g><path style="opacity:1" fill="#21481b" d="M 90.5,35.5 C 93.6399,34.3592 96.9733,34.1925 100.5,35C 102.491,35.3736 104.158,36.207 105.5,37.5C 104.761,37.369 104.094,37.5357 103.5,38C 104.622,40.1238 106.122,41.9571 108,43.5C 108.495,45.4727 108.662,47.4727 108.5,49.5C 111.692,49.5955 114.692,48.9288 117.5,47.5C 116.426,48.8846 115.093,50.0513 113.5,51C 117.859,51.5343 122.192,51.3676 126.5,50.5C 125.737,51.2679 124.737,51.7679 123.5,52C 119.514,52.4988 115.514,52.6655 111.5,52.5C 110.791,51.596 109.791,51.2627 108.5,51.5C 108.088,49.1133 107.088,47.1133 105.5,45.5C 105.5,45.1667 105.5,44.8333 105.5,44.5C 105.938,44.5654 106.272,44.3988 106.5,44C 104.498,41.1402 102.165,38.6402 99.5,36.5C 96.7131,35.5233 93.7131,35.19 90.5,35.5 Z"/></g>
<g><path style="opacity:1" fill="#090a09" d="M 166.5,60.5 C 166.5,62.5 166.5,64.5 166.5,66.5C 166.389,67.1174 166.056,67.6174 165.5,68C 161.218,69.1566 156.884,69.9899 152.5,70.5C 147.193,71.0265 142.193,70.3598 137.5,68.5C 139.838,64.4634 142.172,60.4634 144.5,56.5C 145.338,56.1583 145.672,55.4916 145.5,54.5C 147.308,53.0927 149.308,51.926 151.5,51C 160.281,48.2899 165.281,51.4566 166.5,60.5 Z"/></g>
<g><path style="opacity:1" fill="#66846e" d="M 47.5,34.5 C 42.6793,36.7293 39.1793,40.3959 37,45.5C 34.3677,57.2324 36.8677,67.5657 44.5,76.5C 42.629,76.1412 41.129,75.1412 40,73.5C 34.8304,65.1873 33.1637,56.1873 35,46.5C 36.3428,42.4904 38.5095,38.9904 41.5,36C 43.3453,34.872 45.3453,34.372 47.5,34.5 Z"/></g>
<g><path style="opacity:1" fill="#d4d4d4" d="M 74.5,51.5 C 77.9694,50.8872 79.9694,52.2206 80.5,55.5C 77.0306,56.1128 75.0306,54.7794 74.5,51.5 Z"/></g>
<g><path style="opacity:1" fill="#a7aba5" d="M 170.5,46.5 C 164.491,46.3338 158.491,46.5005 152.5,47C 149.572,49.09 147.239,51.59 145.5,54.5C 145.672,55.4916 145.338,56.1583 144.5,56.5C 144.483,54.9719 143.816,54.4719 142.5,55C 139.462,57.7026 136.795,60.7026 134.5,64C 133.241,64.9819 131.908,65.3152 130.5,65C 136.186,58.6493 142.519,52.9826 149.5,48C 147.527,47.5045 145.527,47.3379 143.5,47.5C 143.611,46.8826 143.944,46.3826 144.5,46C 153.343,45.1764 162.01,45.3431 170.5,46.5 Z"/></g>
<g><path style="opacity:1" fill="#348a28" d="M 43.5,48.5 C 46.2316,51.8961 49.5649,54.5628 53.5,56.5C 54.6354,58.2132 56.302,58.8799 58.5,58.5C 60.9312,60.0682 60.9312,61.5682 58.5,63C 60.1893,62.8657 61.856,62.3657 63.5,61.5C 64.1667,61.5 64.8333,61.5 65.5,61.5C 65.6107,62.1174 65.944,62.6174 66.5,63C 76.866,65.6023 87.1993,66.1023 97.5,64.5C 98.1667,64.5 98.8333,64.5 99.5,64.5C 99.5,65.1667 99.5,65.8333 99.5,66.5C 99.5,66.8333 99.5,67.1667 99.5,67.5C 97.4559,68.0312 95.7893,69.1978 94.5,71C 92.1902,71.4966 89.8568,71.6633 87.5,71.5C 76.8302,72.6336 66.1635,72.8003 55.5,72C 58.3004,73.2319 61.3004,73.8985 64.5,74C 73.3442,74.0579 82.0109,74.2246 90.5,74.5C 89.3406,76.2503 87.674,77.2503 85.5,77.5C 83.9731,77.427 82.9731,78.0937 82.5,79.5C 74.4133,82.1562 66.4133,82.1562 58.5,79.5C 56.9674,77.7549 54.9674,76.7549 52.5,76.5C 51.0892,74.086 49.0892,72.4194 46.5,71.5C 45.0512,69.3894 44.0512,67.0561 43.5,64.5C 43.047,60.471 42.3803,56.471 41.5,52.5C 41.5854,50.6672 42.2521,49.3339 43.5,48.5 Z"/></g>
<g><path style="opacity:1" fill="#878e8f" d="M 175.5,43.5 C 176.869,45.7538 177.869,48.2538 178.5,51C 177.528,55.0784 176.195,58.9117 174.5,62.5C 174.5,61.8333 174.167,61.5 173.5,61.5C 174.649,58.5777 175.649,55.5777 176.5,52.5C 175.74,50.6396 174.74,48.973 173.5,47.5C 174.833,47.5 175.5,46.8333 175.5,45.5C 175.5,44.8333 175.5,44.1667 175.5,43.5 Z"/></g>
<g><path style="opacity:1" fill="#395e36" d="M 43.5,43.5 C 43.8333,43.5 44.1667,43.5 44.5,43.5C 42.5989,44.935 42.2655,46.6017 43.5,48.5C 42.2521,49.3339 41.5854,50.6672 41.5,52.5C 42.3803,56.471 43.047,60.471 43.5,64.5C 42.8826,64.3893 42.3826,64.056 42,63.5C 40.701,57.8809 40.3677,52.2142 41,46.5C 41.3768,45.0577 42.2101,44.0577 43.5,43.5 Z"/></g>
<g><path style="opacity:0.557" fill="#5d5f5f" d="M 171.5,32.5 C 176.375,34.5353 180.208,37.8686 183,42.5C 183.27,46.3728 183.77,50.2062 184.5,54C 183.202,58.8941 181.702,63.7274 180,68.5C 179.292,69.3805 178.458,70.0472 177.5,70.5C 178.85,66.0901 180.35,61.7568 182,57.5C 182.667,53.1667 182.667,48.8333 182,44.5C 180.263,39.7644 176.929,36.7644 172,35.5C 171.517,34.552 171.351,33.552 171.5,32.5 Z"/></g>
<g><path style="opacity:1" fill="#cccccc" d="M 150.5,54.5 C 151.5,54.5 152.5,54.5 153.5,54.5C 153.193,57.962 152.193,57.962 150.5,54.5 Z"/></g>
<g><path style="opacity:1" fill="#50634b" d="M 53.5,56.5 C 55.403,56.7959 57.0697,57.4625 58.5,58.5C 56.302,58.8799 54.6354,58.2132 53.5,56.5 Z"/></g>
<g><path style="opacity:0.999" fill="#358d29" d="M 4.5,51.5 C 5.5,51.5 6.5,51.5 7.5,51.5C 7.39241,55.247 7.89241,58.9137 9,62.5C 10.4055,65.4086 12.5722,67.4086 15.5,68.5C 21.727,71.7807 28.0603,74.7807 34.5,77.5C 36.3949,79.2413 38.7282,80.2413 41.5,80.5C 42.1667,80.5 42.8333,80.5 43.5,80.5C 48.916,82.1173 54.5827,82.784 60.5,82.5C 70.0893,83.639 79.756,83.8057 89.5,83C 94.0325,82.6271 97.3658,80.4605 99.5,76.5C 101.822,75.1979 103.155,73.1979 103.5,70.5C 104.812,69.8549 105.812,68.8549 106.5,67.5C 107.689,66.5713 109.022,66.238 110.5,66.5C 113.681,67.3485 116.348,69.0152 118.5,71.5C 119.5,72.1667 120.5,72.8333 121.5,73.5C 121.5,74.8333 121.5,76.1667 121.5,77.5C 123.75,77.1814 125.75,77.6814 127.5,79C 126.584,79.2784 125.918,79.7784 125.5,80.5C 122.391,80.2641 119.391,80.5975 116.5,81.5C 112.786,81.5902 109.452,82.5902 106.5,84.5C 106.167,84.5 105.833,84.5 105.5,84.5C 95.8657,85.392 86.1991,85.7253 76.5,85.5C 74.6965,84.838 72.6965,84.5046 70.5,84.5C 67.1864,84.3425 64.1864,85.0092 61.5,86.5C 59.9826,86.5106 58.8159,87.1772 58,88.5C 57.1925,92.0267 57.3592,95.3601 58.5,98.5C 59.0283,99.7206 59.695,100.887 60.5,102C 74,103.581 87,102.081 99.5,97.5C 103.534,97.4835 107.201,96.4835 110.5,94.5C 121.977,91.3482 133.644,90.6815 145.5,92.5C 145.5,93.1667 145.5,93.8333 145.5,94.5C 145.5,95.1667 145.167,95.5 144.5,95.5C 142.738,96.2623 141.738,97.5956 141.5,99.5C 140.5,99.5 139.5,99.5 138.5,99.5C 138.5,100.5 138.5,101.5 138.5,102.5C 137.5,102.5 136.5,102.5 135.5,102.5C 135.5,103.833 135.5,105.167 135.5,106.5C 133.973,106.427 132.973,107.094 132.5,108.5C 129.166,108.981 126.833,110.647 125.5,113.5C 121.206,117.974 116.539,121.974 111.5,125.5C 105.457,127.507 99.4569,129.507 93.5,131.5C 92.8333,131.5 92.1667,131.5 91.5,131.5C 88.5049,131.294 85.8383,131.96 83.5,133.5C 72.1667,133.5 60.8333,133.5 49.5,133.5C 47.8984,131.926 45.8984,131.259 43.5,131.5C 42.1667,131.5 40.8333,131.5 39.5,131.5C 37.7354,130.539 35.7354,130.205 33.5,130.5C 31.1617,128.96 28.4951,128.294 25.5,128.5C 19.4276,127.467 13.761,125.3 8.5,122C 5.90614,119.914 3.90614,117.414 2.5,114.5C 6.5151,115.895 10.5151,117.395 14.5,119C 21.3722,119.385 28.0389,120.719 34.5,123C 54.8168,124.871 75.1501,124.871 95.5,123C 105.014,121.376 114.014,118.376 122.5,114C 113.516,117.246 104.183,119.579 94.5,121C 68.6538,123.846 42.9871,122.846 17.5,118C 11.2577,116.442 5.25767,114.275 -0.5,111.5C -0.5,95.8333 -0.5,80.1667 -0.5,64.5C 1.74028,60.9017 3.07362,56.9017 3.5,52.5C 4.16667,52.5 4.5,52.1667 4.5,51.5 Z"/></g>
<g><path style="opacity:1" fill="#c5c5c5" d="M 89.5,57.5 C 91.9118,57.6941 92.9118,59.0274 92.5,61.5C 89.0464,61.7332 88.0464,60.3999 89.5,57.5 Z"/></g>
<g><path style="opacity:1" fill="#8a8d8e" d="M 108.5,51.5 C 109.791,51.2627 110.791,51.596 111.5,52.5C 110.624,52.3691 109.957,52.7025 109.5,53.5C 108.926,55.0589 108.26,56.5589 107.5,58C 108.672,58.3534 109.838,58.1868 111,57.5C 117.258,60.0244 121.758,64.3578 124.5,70.5C 124.5,70.8333 124.5,71.1667 124.5,71.5C 121.365,68.1919 118.365,64.6919 115.5,61C 111.647,58.8664 107.98,59.033 104.5,61.5C 104.5,61.1667 104.5,60.8333 104.5,60.5C 106.214,57.7012 107.547,54.7012 108.5,51.5 Z"/></g>
<g><path style="opacity:0.973" fill="#21311f" d="M 3.5,52.5 C 3.07362,56.9017 1.74028,60.9017 -0.5,64.5C -0.5,62.8333 -0.5,61.1667 -0.5,59.5C 0.56651,57.036 1.89984,54.7026 3.5,52.5 Z"/></g>
<g><path style="opacity:1" fill="#cfcfcf" d="M 75.5,59.5 C 76.5,59.5 77.5,59.5 78.5,59.5C 77.7542,63.31 76.7542,63.31 75.5,59.5 Z"/></g>
<g><path style="opacity:1" fill="#2f5a2b" d="M 4.5,51.5 C 6.04959,50.2801 7.71626,50.2801 9.5,51.5C 8.34851,58.3841 10.3485,64.0508 15.5,68.5C 12.5722,67.4086 10.4055,65.4086 9,62.5C 7.89241,58.9137 7.39241,55.247 7.5,51.5C 6.5,51.5 5.5,51.5 4.5,51.5 Z"/></g>
<g><path style="opacity:1" fill="#4b7142" d="M 58.5,58.5 C 60.4341,59.1103 62.1007,60.1103 63.5,61.5C 61.856,62.3657 60.1893,62.8657 58.5,63C 60.9312,61.5682 60.9312,60.0682 58.5,58.5 Z"/></g>
<g><path style="opacity:1" fill="#939393" d="M 166.5,60.5 C 166.972,62.5313 167.972,64.1979 169.5,65.5C 169.5,65.8333 169.5,66.1667 169.5,66.5C 168.5,66.5 167.5,66.5 166.5,66.5C 166.5,64.5 166.5,62.5 166.5,60.5 Z"/></g>
<g><path style="opacity:1" fill="#d1d1d1" d="M 158.5,61.5 C 159.833,61.5 161.167,61.5 162.5,61.5C 162.616,64.9103 160.95,66.2436 157.5,65.5C 157.433,64.0413 157.766,62.7079 158.5,61.5 Z"/></g>
<g><path style="opacity:1" fill="#2f3b31" d="M 104.5,60.5 C 104.5,60.8333 104.5,61.1667 104.5,61.5C 103.167,63.5 101.5,65.1667 99.5,66.5C 99.5,65.8333 99.5,65.1667 99.5,64.5C 101.172,63.1304 102.839,61.7971 104.5,60.5 Z"/></g>
<g><path style="opacity:1" fill="#19251a" d="M 110.5,64.5 C 110.5,65.1667 110.5,65.8333 110.5,66.5C 109.022,66.238 107.689,66.5713 106.5,67.5C 105.812,68.8549 104.812,69.8549 103.5,70.5C 104.291,66.7096 106.624,64.7096 110.5,64.5 Z"/></g>
<g><path style="opacity:1" fill="#6a6e6a" d="M 110.5,64.5 C 114.395,65.3931 117.062,67.7264 118.5,71.5C 116.348,69.0152 113.681,67.3485 110.5,66.5C 110.5,65.8333 110.5,65.1667 110.5,64.5 Z"/></g>
<g><path style="opacity:1" fill="#23471e" d="M 173.5,61.5 C 174.167,61.5 174.5,61.8333 174.5,62.5C 173.525,64.7952 172.192,66.7952 170.5,68.5C 170.672,67.5084 170.338,66.8417 169.5,66.5C 169.5,66.1667 169.5,65.8333 169.5,65.5C 171.167,64.5 172.5,63.1667 173.5,61.5 Z"/></g>
<g><path style="opacity:1" fill="#244422" d="M 99.5,67.5 C 97.7607,70.2427 95.4274,72.2427 92.5,73.5C 90.8333,72.8333 89.1667,72.1667 87.5,71.5C 89.8568,71.6633 92.1902,71.4966 94.5,71C 95.7893,69.1978 97.4559,68.0312 99.5,67.5 Z"/></g>
<g><path style="opacity:1" fill="#344d2f" d="M 137.5,68.5 C 142.193,70.3598 147.193,71.0265 152.5,70.5C 144.281,70.8459 136.281,71.8459 128.5,73.5C 127.167,72.8333 125.833,72.1667 124.5,71.5C 124.5,71.1667 124.5,70.8333 124.5,70.5C 129.294,71.0969 133.627,70.4302 137.5,68.5 Z"/></g>
<g><path style="opacity:1" fill="#2d522c" d="M 46.5,71.5 C 49.0892,72.4194 51.0892,74.086 52.5,76.5C 49.9108,75.5806 47.9108,73.914 46.5,71.5 Z"/></g>
<g><path style="opacity:1" fill="#194713" d="M 87.5,71.5 C 89.1667,72.1667 90.8333,72.8333 92.5,73.5C 92.1583,74.3382 91.4916,74.6716 90.5,74.5C 82.0109,74.2246 73.3442,74.0579 64.5,74C 61.3004,73.8985 58.3004,73.2319 55.5,72C 66.1635,72.8003 76.8302,72.6336 87.5,71.5 Z"/></g>
<g><path style="opacity:1" fill="#368c2a" d="M 166.5,66.5 C 167.5,66.5 168.5,66.5 169.5,66.5C 170.338,66.8417 170.672,67.5084 170.5,68.5C 169.5,70.1667 168.167,71.5 166.5,72.5C 161.564,73.8625 156.564,74.8625 151.5,75.5C 147.543,75.9916 143.877,75.3249 140.5,73.5C 140.167,73.6667 139.833,73.8333 139.5,74C 143.193,77.2176 142.193,78.3843 136.5,77.5C 133.246,77.2064 130.579,75.873 128.5,73.5C 136.281,71.8459 144.281,70.8459 152.5,70.5C 156.884,69.9899 161.218,69.1566 165.5,68C 166.056,67.6174 166.389,67.1174 166.5,66.5 Z"/></g>
<g><path style="opacity:1" fill="#1e3b1c" d="M 103.5,70.5 C 103.155,73.1979 101.822,75.1979 99.5,76.5C 100.34,74.1475 101.674,72.1475 103.5,70.5 Z"/></g>
<g><path style="opacity:1" fill="#1f411b" d="M 166.5,72.5 C 163.52,75.4872 159.853,77.1539 155.5,77.5C 154.167,76.8333 152.833,76.1667 151.5,75.5C 156.564,74.8625 161.564,73.8625 166.5,72.5 Z"/></g>
<g><path style="opacity:1" fill="#264e1e" d="M 121.5,73.5 C 125.071,75.4719 128.405,77.8052 131.5,80.5C 129.5,80.5 127.5,80.5 125.5,80.5C 125.918,79.7784 126.584,79.2784 127.5,79C 125.75,77.6814 123.75,77.1814 121.5,77.5C 121.5,76.1667 121.5,74.8333 121.5,73.5 Z"/></g>
<g><path style="opacity:1" fill="#26641d" d="M 151.5,75.5 C 152.833,76.1667 154.167,76.8333 155.5,77.5C 152.981,79.0552 150.148,79.7219 147,79.5C 143.218,79.6209 139.718,78.9542 136.5,77.5C 142.193,78.3843 143.193,77.2176 139.5,74C 139.833,73.8333 140.167,73.6667 140.5,73.5C 143.877,75.3249 147.543,75.9916 151.5,75.5 Z"/></g>
<g><path style="opacity:1" fill="#375137" d="M 44.5,76.5 C 47.5976,77.2159 50.2643,78.7159 52.5,81C 55.3647,81.1829 58.0314,81.6829 60.5,82.5C 54.5827,82.784 48.916,82.1173 43.5,80.5C 45.1992,80.6602 46.8659,80.4935 48.5,80C 46.9069,79.0513 45.5736,77.8846 44.5,76.5 Z"/></g>
<g><path style="opacity:1" fill="#335c2f" d="M 34.5,77.5 C 37.3462,77.5516 39.6796,78.5516 41.5,80.5C 38.7282,80.2413 36.3949,79.2413 34.5,77.5 Z"/></g>
<g><path style="opacity:1" fill="#375f36" d="M 52.5,76.5 C 54.9674,76.7549 56.9674,77.7549 58.5,79.5C 56.0326,79.2451 54.0326,78.2451 52.5,76.5 Z"/></g>
<g><path style="opacity:1" fill="#576e60" d="M 85.5,77.5 C 85.0269,78.9063 84.0269,79.573 82.5,79.5C 82.9731,78.0937 83.9731,77.427 85.5,77.5 Z"/></g>
<g><path style="opacity:0.91" fill="#473b36" d="M 177.5,70.5 C 175.908,74.5842 172.908,77.0842 168.5,78C 171.22,81.8176 170.553,85.151 166.5,88C 164.975,89.0086 163.308,89.5086 161.5,89.5C 161.833,88.8333 162.167,88.1667 162.5,87.5C 166.88,86.7764 168.88,84.1097 168.5,79.5C 163.673,79.9405 159.007,81.1072 154.5,83C 148.984,83.8174 143.65,83.6507 138.5,82.5C 143.179,82.6658 147.845,82.4992 152.5,82C 158.978,79.0929 165.644,76.7596 172.5,75C 174.037,73.2927 175.704,71.7927 177.5,70.5 Z"/></g>
<g><path style="opacity:1" fill="#333918" d="M 116.5,81.5 C 113.505,83.2429 110.171,84.2429 106.5,84.5C 109.452,82.5902 112.786,81.5902 116.5,81.5 Z"/></g>
<g><path style="opacity:1" fill="#5b3327" d="M 162.5,87.5 C 162.167,88.1667 161.833,88.8333 161.5,89.5C 160.167,89.5 158.833,89.5 157.5,89.5C 157.565,89.0618 157.399,88.7284 157,88.5C 156.722,89.4158 156.222,90.0825 155.5,90.5C 144.925,89.0117 134.092,87.345 123,85.5C 118.43,85.9473 113.93,86.7807 109.5,88C 99.2507,93.9798 88.2507,96.3131 76.5,95C 81.8333,94.3333 87.1667,93.6667 92.5,93C 100.332,89.7468 108.332,87.0802 116.5,85C 131.788,86.0858 147.122,86.9192 162.5,87.5 Z"/></g>
<g><path style="opacity:1" fill="#af644d" d="M 162.5,87.5 C 147.122,86.9192 131.788,86.0858 116.5,85C 108.332,87.0802 100.332,89.7468 92.5,93C 87.1667,93.6667 81.8333,94.3333 76.5,95C 88.2507,96.3131 99.2507,93.9798 109.5,88C 113.93,86.7807 118.43,85.9473 123,85.5C 134.092,87.345 144.925,89.0117 155.5,90.5C 155.389,91.1174 155.056,91.6174 154.5,92C 151.518,92.498 148.518,92.6646 145.5,92.5C 133.644,90.6815 121.977,91.3482 110.5,94.5C 106.573,94.9257 102.907,95.9257 99.5,97.5C 87,102.081 74,103.581 60.5,102C 59.695,100.887 59.0283,99.7206 58.5,98.5C 57.7688,93.9275 58.7688,89.9275 61.5,86.5C 64.1864,85.0092 67.1864,84.3425 70.5,84.5C 72.6965,84.5046 74.6965,84.838 76.5,85.5C 84.9901,86.6569 93.6567,86.8236 102.5,86C 103.737,85.7679 104.737,85.2679 105.5,84.5C 105.833,84.5 106.167,84.5 106.5,84.5C 110.171,84.2429 113.505,83.2429 116.5,81.5C 119.391,80.5975 122.391,80.2641 125.5,80.5C 127.5,80.5 129.5,80.5 131.5,80.5C 133.894,81.0147 136.228,81.6814 138.5,82.5C 143.65,83.6507 148.984,83.8174 154.5,83C 159.007,81.1072 163.673,79.9405 168.5,79.5C 168.88,84.1097 166.88,86.7764 162.5,87.5 Z"/></g>
<g><path style="opacity:1" fill="#5b3726" d="M 105.5,84.5 C 104.737,85.2679 103.737,85.7679 102.5,86C 93.6567,86.8236 84.9901,86.6569 76.5,85.5C 86.1991,85.7253 95.8657,85.392 105.5,84.5 Z"/></g>
<g><path style="opacity:1" fill="#496acb" d="M 199.5,90.5 C 199.5,91.1667 199.5,91.8333 199.5,92.5C 198.077,94.5449 196.077,95.5449 193.5,95.5C 193.443,94.391 193.11,93.391 192.5,92.5C 192.5,88.1667 192.5,83.8333 192.5,79.5C 193.822,79.33 194.989,79.6634 196,80.5C 197.692,83.7761 198.859,87.1095 199.5,90.5 Z"/></g>
<g><path style="opacity:0.141" fill="#201816" d="M 157.5,89.5 C 157.084,91.7525 155.751,93.2525 153.5,94C 150.854,94.4974 148.187,94.6641 145.5,94.5C 145.5,93.8333 145.5,93.1667 145.5,92.5C 148.518,92.6646 151.518,92.498 154.5,92C 155.056,91.6174 155.389,91.1174 155.5,90.5C 156.222,90.0825 156.722,89.4158 157,88.5C 157.399,88.7284 157.565,89.0618 157.5,89.5 Z"/></g>
<g><path style="opacity:1" fill="#584027" d="M 61.5,86.5 C 58.7688,89.9275 57.7688,93.9275 58.5,98.5C 57.3592,95.3601 57.1925,92.0267 58,88.5C 58.8159,87.1772 59.9826,86.5106 61.5,86.5 Z"/></g>
<g><path style="opacity:1" fill="#553824" d="M 110.5,94.5 C 107.201,96.4835 103.534,97.4835 99.5,97.5C 102.907,95.9257 106.573,94.9257 110.5,94.5 Z"/></g>
<g><path style="opacity:0.129" fill="#2f412a" d="M 144.5,95.5 C 144.262,97.4044 143.262,98.7377 141.5,99.5C 141.738,97.5956 142.738,96.2623 144.5,95.5 Z"/></g>
<g><path style="opacity:1" fill="#d3b17f" d="M 199.5,92.5 C 199.5,96.5 199.5,100.5 199.5,104.5C 197.2,106.202 194.533,106.868 191.5,106.5C 191.334,102.486 191.501,98.4862 192,94.5C 192.383,95.056 192.883,95.3893 193.5,95.5C 196.077,95.5449 198.077,94.5449 199.5,92.5 Z"/></g>
<g><path style="opacity:1" fill="#37672c" d="M 141.5,99.5 C 140.243,102.427 138.243,104.761 135.5,106.5C 135.5,105.167 135.5,103.833 135.5,102.5C 136.5,102.5 137.5,102.5 138.5,102.5C 138.5,101.5 138.5,100.5 138.5,99.5C 139.5,99.5 140.5,99.5 141.5,99.5 Z"/></g>
<g><path style="opacity:0.078" fill="#242a24" d="M 135.5,106.5 C 135.027,107.906 134.027,108.573 132.5,108.5C 132.973,107.094 133.973,106.427 135.5,106.5 Z"/></g>
<g><path style="opacity:0.004" fill="#273028" d="M 132.5,108.5 C 131.167,109.833 129.833,111.167 128.5,112.5C 128.167,112.5 127.833,112.5 127.5,112.5C 126.833,112.833 126.167,113.167 125.5,113.5C 126.833,110.647 129.166,108.981 132.5,108.5 Z"/></g>
<g><path style="opacity:0.998" fill="#cecece" d="M 199.5,145.5 C 199.5,150.833 199.5,156.167 199.5,161.5C 194.508,161.001 189.508,160.501 184.5,160C 182.113,159.436 180.113,158.27 178.5,156.5C 178.178,154.278 178.845,152.444 180.5,151C 183.417,148.569 186.75,147.402 190.5,147.5C 190.281,148.675 190.614,149.675 191.5,150.5C 192.788,144.446 192.788,138.446 191.5,132.5C 191.5,132.167 191.5,131.833 191.5,131.5C 191.5,123.5 191.5,115.5 191.5,107.5C 193.792,107.244 195.959,107.577 198,108.5C 198.048,116.152 197.882,123.819 197.5,131.5C 197.507,136.551 198.173,141.217 199.5,145.5 Z"/></g>
<g><path style="opacity:0.008" fill="#3f4247" d="M 128.5,112.5 C 130.882,113.351 132.882,114.684 134.5,116.5C 132.5,115.833 130.5,115.167 128.5,114.5C 128.5,113.833 128.5,113.167 128.5,112.5 Z"/></g>
<g><path style="opacity:1" fill="#e0dfe1" d="M 127.5,112.5 C 126.307,115.711 124.641,118.711 122.5,121.5C 121.391,121.557 120.391,121.89 119.5,122.5C 117.77,123.026 116.436,124.026 115.5,125.5C 113.861,125.926 112.528,125.926 111.5,125.5C 116.539,121.974 121.206,117.974 125.5,113.5C 126.167,113.167 126.833,112.833 127.5,112.5 Z"/></g>
<g><path style="opacity:0.993" fill="#f9f8f8" d="M -0.5,117.5 C 0.793048,118.842 1.62638,120.509 2,122.5C 4.59341,124.549 7.09341,126.715 9.5,129C 20.2413,132.513 31.2413,134.179 42.5,134C 40.2115,133.178 37.8782,132.511 35.5,132C 36.7932,131.51 38.1266,131.343 39.5,131.5C 40.8333,131.5 42.1667,131.5 43.5,131.5C 45.1016,133.074 47.1016,133.741 49.5,133.5C 60.8333,133.5 72.1667,133.5 83.5,133.5C 86.5533,133.889 89.22,133.223 91.5,131.5C 92.1667,131.5 92.8333,131.5 93.5,131.5C 94.552,131.351 95.552,131.517 96.5,132C 89.4073,134.618 82.0739,135.952 74.5,136C 64.1045,136.446 53.7712,136.113 43.5,135C 68.682,141.342 92.682,138.175 115.5,125.5C 118.306,123.83 120.806,124.163 123,126.5C 123.611,131.496 124.111,136.496 124.5,141.5C 110.623,143.848 96.6235,145.181 82.5,145.5C 81.5,145.5 80.5,145.5 79.5,145.5C 79.6602,143.801 79.4935,142.134 79,140.5C 78.79,142.058 78.29,143.391 77.5,144.5C 76.2918,143.218 74.9584,143.218 73.5,144.5C 74.1667,145.167 74.8333,145.833 75.5,146.5C 72.8929,147.318 70.2263,147.818 67.5,148C 47.8259,149.625 28.1592,151.125 8.5,152.5C 7.22723,159.631 5.89389,166.798 4.5,174C 6.33116,182.464 6.6645,190.964 5.5,199.5C 3.5,199.5 1.5,199.5 -0.5,199.5C -0.5,172.167 -0.5,144.833 -0.5,117.5 Z"/></g>
<g><path style="opacity:0.208" fill="#525252" d="M 134.5,116.5 C 136.017,116.511 137.184,117.177 138,118.5C 145.086,117.354 152.253,117.188 159.5,118C 162.442,118.144 164.776,119.311 166.5,121.5C 165.833,121.833 165.167,122.167 164.5,122.5C 156.957,119.932 149.29,119.432 141.5,121C 143.019,122.351 144.352,123.851 145.5,125.5C 148.199,126.729 150.865,126.729 153.5,125.5C 155.219,126.022 156.552,127.022 157.5,128.5C 153.958,128.187 150.625,128.521 147.5,129.5C 146.833,129.167 146.167,128.833 145.5,128.5C 145.167,127.833 144.833,127.167 144.5,126.5C 142.833,124.167 140.833,122.167 138.5,120.5C 136.672,119.717 135.339,118.384 134.5,116.5 Z"/></g>
<g><path style="opacity:1" fill="#e9e9ea" d="M 0.5,113.5 C 1.49162,113.328 2.15829,113.662 2.5,114.5C 3.90614,117.414 5.90614,119.914 8.5,122C 13.761,125.3 19.4276,127.467 25.5,128.5C 27.5994,129.612 29.9327,130.279 32.5,130.5C 21.7756,132.398 12.2756,129.732 4,122.5C 2.71588,119.47 1.54922,116.47 0.5,113.5 Z"/></g>
<g><path style="opacity:1" fill="#c9caca" d="M 128.5,114.5 C 130.5,115.167 132.5,115.833 134.5,116.5C 135.339,118.384 136.672,119.717 138.5,120.5C 134.4,120.237 130.4,120.57 126.5,121.5C 126.196,120.85 125.863,120.183 125.5,119.5C 126.952,118.06 127.952,116.394 128.5,114.5 Z"/></g>
<g><path style="opacity:1" fill="#fcfcfc" d="M 138.5,120.5 C 140.833,122.167 142.833,124.167 144.5,126.5C 139.113,126.595 133.78,126.095 128.5,125C 126.579,124.64 124.912,123.806 123.5,122.5C 124.325,121.614 125.325,121.281 126.5,121.5C 130.4,120.57 134.4,120.237 138.5,120.5 Z"/></g>
<g><path style="opacity:1" fill="#1f1f1f" d="M 122.5,121.5 C 121.947,123.552 120.947,123.885 119.5,122.5C 120.391,121.89 121.391,121.557 122.5,121.5 Z"/></g>
<g><path style="opacity:1" fill="#1c4d15" d="M -0.5,112.5 C -0.5,112.167 -0.5,111.833 -0.5,111.5C 5.25767,114.275 11.2577,116.442 17.5,118C 42.9871,122.846 68.6538,123.846 94.5,121C 104.183,119.579 113.516,117.246 122.5,114C 114.014,118.376 105.014,121.376 95.5,123C 75.1501,124.871 54.8168,124.871 34.5,123C 28.0389,120.719 21.3722,119.385 14.5,119C 10.5151,117.395 6.5151,115.895 2.5,114.5C 2.15829,113.662 1.49162,113.328 0.5,113.5C 0.5,112.833 0.166667,112.5 -0.5,112.5 Z"/></g>
<g><path style="opacity:1" fill="#979798" d="M 127.5,112.5 C 127.833,112.5 128.167,112.5 128.5,112.5C 128.5,113.167 128.5,113.833 128.5,114.5C 127.952,116.394 126.952,118.06 125.5,119.5C 125.863,120.183 126.196,120.85 126.5,121.5C 125.325,121.281 124.325,121.614 123.5,122.5C 124.912,123.806 126.579,124.64 128.5,125C 133.78,126.095 139.113,126.595 144.5,126.5C 144.833,127.167 145.167,127.833 145.5,128.5C 138.745,128.613 132.078,127.947 125.5,126.5C 125.5,130.833 125.5,135.167 125.5,139.5C 125.5,140.167 125.5,140.833 125.5,141.5C 125.167,141.5 124.833,141.5 124.5,141.5C 124.111,136.496 123.611,131.496 123,126.5C 120.806,124.163 118.306,123.83 115.5,125.5C 116.436,124.026 117.77,123.026 119.5,122.5C 120.947,123.885 121.947,123.552 122.5,121.5C 124.641,118.711 126.307,115.711 127.5,112.5 Z"/></g>
<g><path style="opacity:1" fill="#fbfbfb" d="M 145.5,128.5 C 146.167,128.833 146.833,129.167 147.5,129.5C 147.5,129.833 147.5,130.167 147.5,130.5C 147.877,132.258 148.544,133.925 149.5,135.5C 149.167,135.833 148.833,136.167 148.5,136.5C 143.368,137.121 138.368,137.787 133.5,138.5C 130.763,138.401 128.096,138.735 125.5,139.5C 125.5,135.167 125.5,130.833 125.5,126.5C 132.078,127.947 138.745,128.613 145.5,128.5 Z"/></g>
<g><path style="opacity:1" fill="#384e35" d="M 25.5,128.5 C 28.4951,128.294 31.1617,128.96 33.5,130.5C 33.1667,130.5 32.8333,130.5 32.5,130.5C 29.9327,130.279 27.5994,129.612 25.5,128.5 Z"/></g>
<g><path style="opacity:0.09" fill="#4c4441" d="M 192.5,92.5 C 193.11,93.391 193.443,94.391 193.5,95.5C 192.883,95.3893 192.383,95.056 192,94.5C 191.501,98.4862 191.334,102.486 191.5,106.5C 194.533,106.868 197.2,106.202 199.5,104.5C 199.5,118.167 199.5,131.833 199.5,145.5C 198.173,141.217 197.507,136.551 197.5,131.5C 197.882,123.819 198.048,116.152 198,108.5C 195.959,107.577 193.792,107.244 191.5,107.5C 191.5,115.5 191.5,123.5 191.5,131.5C 190.457,119.328 189.957,106.995 190,94.5C 190.708,93.6195 191.542,92.9528 192.5,92.5 Z"/></g>
<g><path style="opacity:0.961" fill="#a1a1a1" d="M -0.5,113.5 C -0.166667,113.5 0.166667,113.5 0.5,113.5C 1.54922,116.47 2.71588,119.47 4,122.5C 12.2756,129.732 21.7756,132.398 32.5,130.5C 32.8333,130.5 33.1667,130.5 33.5,130.5C 35.7354,130.205 37.7354,130.539 39.5,131.5C 38.1266,131.343 36.7932,131.51 35.5,132C 37.8782,132.511 40.2115,133.178 42.5,134C 31.2413,134.179 20.2413,132.513 9.5,129C 7.09341,126.715 4.59341,124.549 2,122.5C 1.62638,120.509 0.793048,118.842 -0.5,117.5C -0.5,116.167 -0.5,114.833 -0.5,113.5 Z"/></g>
<g><path style="opacity:1" fill="#546654" d="M 43.5,131.5 C 45.8984,131.259 47.8984,131.926 49.5,133.5C 47.1016,133.741 45.1016,133.074 43.5,131.5 Z"/></g>
<g><path style="opacity:1" fill="#777e78" d="M 91.5,131.5 C 89.22,133.223 86.5533,133.889 83.5,133.5C 85.8383,131.96 88.5049,131.294 91.5,131.5 Z"/></g>
<g><path style="opacity:1" fill="#a5a4a5" d="M 111.5,125.5 C 112.528,125.926 113.861,125.926 115.5,125.5C 92.682,138.175 68.682,141.342 43.5,135C 53.7712,136.113 64.1045,136.446 74.5,136C 82.0739,135.952 89.4073,134.618 96.5,132C 95.552,131.517 94.552,131.351 93.5,131.5C 99.4569,129.507 105.457,127.507 111.5,125.5 Z"/></g>
<g><path style="opacity:0.255" fill="#4c433f" d="M 166.5,121.5 C 167.097,121.735 167.43,122.235 167.5,123C 165.975,127.225 164.975,131.558 164.5,136C 173.554,135.283 182.554,134.116 191.5,132.5C 192.788,138.446 192.788,144.446 191.5,150.5C 190.614,149.675 190.281,148.675 190.5,147.5C 191.485,143.366 191.818,139.032 191.5,134.5C 182.28,136.117 172.947,137.117 163.5,137.5C 163.167,137.5 162.833,137.5 162.5,137.5C 162.665,133.818 162.499,130.152 162,126.5C 160.53,127.267 159.03,127.933 157.5,128.5C 156.552,127.022 155.219,126.022 153.5,125.5C 157.534,125.483 161.201,124.483 164.5,122.5C 165.167,122.167 165.833,121.833 166.5,121.5 Z"/></g>
<g><path style="opacity:1" fill="#714b3b" d="M 190.5,147.5 C 186.75,147.402 183.417,148.569 180.5,151C 178.845,152.444 178.178,154.278 178.5,156.5C 177.227,159.271 178.227,160.938 181.5,161.5C 181.918,162.222 182.584,162.722 183.5,163C 188.837,163.944 194.171,164.777 199.5,165.5C 199.5,170.833 199.5,176.167 199.5,181.5C 185.557,182.961 171.557,183.795 157.5,184C 152.223,185.87 146.89,187.537 141.5,189C 131.143,189.76 120.809,190.76 110.5,192C 96.6356,193.941 82.969,196.441 69.5,199.5C 64.8333,199.5 60.1667,199.5 55.5,199.5C 48.4035,194.92 41.4035,190.087 34.5,185C 28.8891,176.454 22.5558,168.454 15.5,161C 14.9056,160.536 14.2389,160.369 13.5,160.5C 11.0105,158.345 9.34388,155.678 8.5,152.5C 28.1592,151.125 47.8259,149.625 67.5,148C 70.2263,147.818 72.8929,147.318 75.5,146.5C 74.8333,145.833 74.1667,145.167 73.5,144.5C 74.9584,143.218 76.2918,143.218 77.5,144.5C 78.8786,146.597 80.5453,146.93 82.5,145.5C 96.6235,145.181 110.623,143.848 124.5,141.5C 124.833,141.5 125.167,141.5 125.5,141.5C 125.181,146.363 125.514,151.03 126.5,155.5C 126.41,163.394 130.41,166.728 138.5,165.5C 140.641,166.163 142.975,166.497 145.5,166.5C 149.447,166.637 153.114,165.97 156.5,164.5C 159.147,164.071 161.147,162.738 162.5,160.5C 163.492,153.018 163.825,145.352 163.5,137.5C 172.947,137.117 182.28,136.117 191.5,134.5C 191.818,139.032 191.485,143.366 190.5,147.5 Z"/></g>
<g><path style="opacity:1" fill="#6c6e6e" d="M 147.5,130.5 C 148.965,131.406 149.965,132.739 150.5,134.5C 153,135.359 155.333,136.359 157.5,137.5C 149.858,138.263 142.191,138.597 134.5,138.5C 134.167,138.5 133.833,138.5 133.5,138.5C 138.368,137.787 143.368,137.121 148.5,136.5C 148.833,136.167 149.167,135.833 149.5,135.5C 148.544,133.925 147.877,132.258 147.5,130.5 Z"/></g>
<g><path style="opacity:1" fill="#0696a6" d="M 157.5,137.5 C 156.537,138.363 156.537,139.03 157.5,139.5C 159.071,138.691 160.738,138.357 162.5,138.5C 162.5,145.833 162.5,153.167 162.5,160.5C 161.147,162.738 159.147,164.071 156.5,164.5C 154.139,164.326 151.806,163.993 149.5,163.5C 149.5,163.167 149.5,162.833 149.5,162.5C 150.263,161.732 151.263,161.232 152.5,161C 151.552,160.517 150.552,160.351 149.5,160.5C 146.826,158.999 146.993,157.999 150,157.5C 151.326,157.755 152.326,158.422 153,159.5C 153.483,158.552 153.649,157.552 153.5,156.5C 146.048,157.219 145.048,155.552 150.5,151.5C 153.697,153.85 155.197,152.85 155,148.5C 151.74,150.112 148.24,151.279 144.5,152C 143.458,153.918 142.292,155.751 141,157.5C 140.48,155.711 140.813,154.044 142,152.5C 144.833,151 147,148.833 148.5,146C 150.433,145.217 151.933,145.717 153,147.5C 153.483,146.552 153.649,145.552 153.5,144.5C 150.753,144.813 148.086,144.48 145.5,143.5C 145.863,142.817 146.196,142.15 146.5,141.5C 148.801,140.94 151.134,140.44 153.5,140C 149.349,139.857 145.182,140.023 141,140.5C 138.39,140.467 136.223,139.8 134.5,138.5C 142.191,138.597 149.858,138.263 157.5,137.5 Z"/></g>
<g><path style="opacity:1" fill="#0f4f57" d="M 133.5,138.5 C 133.833,138.5 134.167,138.5 134.5,138.5C 136.223,139.8 138.39,140.467 141,140.5C 145.182,140.023 149.349,139.857 153.5,140C 151.134,140.44 148.801,140.94 146.5,141.5C 139.809,141.546 133.143,141.212 126.5,140.5C 126.5,145.5 126.5,150.5 126.5,155.5C 125.514,151.03 125.181,146.363 125.5,141.5C 125.5,140.833 125.5,140.167 125.5,139.5C 128.096,138.735 130.763,138.401 133.5,138.5 Z"/></g>
<g><path style="opacity:1" fill="#00a5b8" d="M 146.5,141.5 C 146.196,142.15 145.863,142.817 145.5,143.5C 148.086,144.48 150.753,144.813 153.5,144.5C 153.649,145.552 153.483,146.552 153,147.5C 151.933,145.717 150.433,145.217 148.5,146C 147,148.833 144.833,151 142,152.5C 140.813,154.044 140.48,155.711 141,157.5C 142.292,155.751 143.458,153.918 144.5,152C 148.24,151.279 151.74,150.112 155,148.5C 155.197,152.85 153.697,153.85 150.5,151.5C 145.048,155.552 146.048,157.219 153.5,156.5C 153.649,157.552 153.483,158.552 153,159.5C 152.326,158.422 151.326,157.755 150,157.5C 146.993,157.999 146.826,158.999 149.5,160.5C 145.5,161.167 145.5,161.833 149.5,162.5C 149.5,162.833 149.5,163.167 149.5,163.5C 146.169,165.298 142.502,165.964 138.5,165.5C 130.41,166.728 126.41,163.394 126.5,155.5C 126.5,150.5 126.5,145.5 126.5,140.5C 133.143,141.212 139.809,141.546 146.5,141.5 Z"/></g>
<g><path style="opacity:1" fill="#054447" d="M 157.5,137.5 C 159.167,137.5 160.833,137.5 162.5,137.5C 162.833,137.5 163.167,137.5 163.5,137.5C 163.825,145.352 163.492,153.018 162.5,160.5C 162.5,153.167 162.5,145.833 162.5,138.5C 160.738,138.357 159.071,138.691 157.5,139.5C 156.537,139.03 156.537,138.363 157.5,137.5 Z"/></g>
<g><path style="opacity:1" fill="#9e9a9a" d="M 82.5,145.5 C 80.5453,146.93 78.8786,146.597 77.5,144.5C 78.29,143.391 78.79,142.058 79,140.5C 79.4935,142.134 79.6602,143.801 79.5,145.5C 80.5,145.5 81.5,145.5 82.5,145.5 Z"/></g>
<g><path style="opacity:0.995" fill="#5a3c2d" d="M 8.5,152.5 C 9.34388,155.678 11.0105,158.345 13.5,160.5C 20.2683,167.438 26.1017,175.104 31,183.5C 37.7885,189.463 44.9552,194.797 52.5,199.5C 36.8333,199.5 21.1667,199.5 5.5,199.5C 6.6645,190.964 6.33116,182.464 4.5,174C 5.89389,166.798 7.22723,159.631 8.5,152.5 Z"/></g>
<g><path style="opacity:1" fill="#005054" d="M 149.5,160.5 C 150.552,160.351 151.552,160.517 152.5,161C 151.263,161.232 150.263,161.732 149.5,162.5C 145.5,161.833 145.5,161.167 149.5,160.5 Z"/></g>
<g><path style="opacity:1" fill="#6e6460" d="M 178.5,156.5 C 180.113,158.27 182.113,159.436 184.5,160C 189.508,160.501 194.508,161.001 199.5,161.5C 199.5,161.833 199.5,162.167 199.5,162.5C 193.705,162.792 188.039,162.125 182.5,160.5C 181.893,160.624 181.56,160.957 181.5,161.5C 178.227,160.938 177.227,159.271 178.5,156.5 Z"/></g>
<g><path style="opacity:1" fill="#c9c9c9" d="M 199.5,162.5 C 199.5,163.5 199.5,164.5 199.5,165.5C 194.171,164.777 188.837,163.944 183.5,163C 182.584,162.722 181.918,162.222 181.5,161.5C 181.56,160.957 181.893,160.624 182.5,160.5C 188.039,162.125 193.705,162.792 199.5,162.5 Z"/></g>
<g><path style="opacity:1" fill="#11595f" d="M 149.5,163.5 C 151.806,163.993 154.139,164.326 156.5,164.5C 153.114,165.97 149.447,166.637 145.5,166.5C 142.975,166.497 140.641,166.163 138.5,165.5C 142.502,165.964 146.169,165.298 149.5,163.5 Z"/></g>
<g><path style="opacity:1" fill="#372219" d="M 13.5,160.5 C 14.2389,160.369 14.9056,160.536 15.5,161C 22.5558,168.454 28.8891,176.454 34.5,185C 41.4035,190.087 48.4035,194.92 55.5,199.5C 54.5,199.5 53.5,199.5 52.5,199.5C 44.9552,194.797 37.7885,189.463 31,183.5C 26.1017,175.104 20.2683,167.438 13.5,160.5 Z"/></g>
<g><path style="opacity:0.988" fill="#5d3e2f" d="M 199.5,183.5 C 199.5,188.833 199.5,194.167 199.5,199.5C 159.5,199.5 119.5,199.5 79.5,199.5C 100.499,195.19 121.832,192.023 143.5,190C 148.153,188.677 152.819,187.344 157.5,186C 171.549,185.755 185.549,184.921 199.5,183.5 Z"/></g>
<g><path style="opacity:1" fill="#3f281e" d="M 199.5,181.5 C 199.5,182.167 199.5,182.833 199.5,183.5C 185.549,184.921 171.549,185.755 157.5,186C 152.819,187.344 148.153,188.677 143.5,190C 121.832,192.023 100.499,195.19 79.5,199.5C 76.1667,199.5 72.8333,199.5 69.5,199.5C 82.969,196.441 96.6356,193.941 110.5,192C 120.809,190.76 131.143,189.76 141.5,189C 146.89,187.537 152.223,185.87 157.5,184C 171.557,183.795 185.557,182.961 199.5,181.5 Z"/></g>
</svg>
