<?xml version="1.0" standalone="no"?>
<!DOCTYPE svg PUBLIC "-//W3C//DTD SVG 20010904//EN"
 "http://www.w3.org/TR/2001/REC-SVG-20010904/DTD/svg10.dtd">
<svg version="1.0" xmlns="http://www.w3.org/2000/svg"
 width="400.000000pt" height="400.000000pt" viewBox="0 0 400.000000 400.000000"
 preserveAspectRatio="xMidYMid meet">

<g transform="translate(0.000000,400.000000) scale(0.100000,-0.100000)"
fill="#000000" stroke="none">
<path d="M0 2000 l0 -2000 2000 0 2000 0 0 2000 0 2000 -2000 0 -2000 0 0
-2000z m865 1170 c9 -36 19 -74 21 -85 2 -11 15 -70 28 -130 14 -60 23 -111
21 -113 -6 -7 -26 9 -21 17 3 4 -2 26 -9 49 -8 23 -12 49 -8 58 5 12 3 15 -6
9 -10 -5 -11 -2 -7 12 6 19 -24 176 -44 228 -5 14 -10 32 -10 38 1 23 18 -18
35 -83z m2080 -110 c-3 -5 -12 -10 -18 -10 -7 0 -6 4 3 10 19 12 23 12 15 0z
m-66 -43 c-14 -12 -47 -35 -74 -50 -51 -30 -56 -49 -6 -22 17 8 31 13 31 10 0
-2 -18 -14 -41 -26 -23 -11 -38 -16 -34 -10 11 18 -3 12 -47 -19 -22 -16 -45
-30 -50 -30 -6 0 -43 -24 -83 -52 -180 -129 -196 -139 -185 -118 6 12 19 24
28 27 34 13 132 87 122 93 -10 6 21 40 50 55 8 4 2 -4 -15 -19 -16 -14 -27
-25 -24 -26 6 0 90 49 182 107 49 31 41 43 -8 14 -20 -11 -33 -16 -30 -11 4 6
25 20 47 31 22 11 37 16 33 10 -12 -21 16 -11 68 24 59 40 74 45 36 12z m111
-7 c-19 -11 -42 -19 -50 -19 -8 0 3 8 25 18 52 25 70 26 25 1z m-1822 -25 c-3
-3 -9 2 -12 12 -6 14 -5 15 5 6 7 -7 10 -15 7 -18z m1747 -5 c-3 -5 -14 -10
-23 -10 -15 0 -15 2 -2 10 20 13 33 13 25 0z m-1887 -20 c12 -19 11 -20 -8 -8
-20 13 -27 28 -12 28 4 0 13 -9 20 -20z m460 -36 l-3 -39 -5 47 c-3 26 -1 43
3 39 5 -5 7 -26 5 -47z m1502 53 c0 -2 -10 -12 -22 -23 l-23 -19 19 23 c18 21
26 27 26 19z m-1805 -17 c3 -5 1 -10 -4 -10 -6 0 -11 5 -11 10 0 6 2 10 4 10
3 0 8 -4 11 -10z m272 -62 c-2 -13 -4 -5 -4 17 -1 22 1 32 4 23 2 -10 2 -28 0
-40z m1059 27 c-11 -8 -17 -15 -13 -15 4 0 0 -11 -9 -25 -10 -15 -12 -25 -5
-25 6 0 2 -9 -9 -20 -11 -11 -20 -27 -20 -36 0 -8 -3 -13 -7 -11 -5 3 -55 -42
-113 -99 -57 -57 -108 -104 -114 -104 -5 0 1 11 14 25 13 14 19 25 14 25 -5 0
34 42 87 93 53 50 102 103 109 117 11 22 8 21 -26 -10 -27 -24 -22 -16 16 26
48 53 67 69 90 73 3 0 -4 -6 -14 -14z m-1452 -11 c10 -25 -1 -29 -14 -5 -6 12
-7 21 -1 21 5 0 12 -7 15 -16z m323 -6 c-3 -8 -6 -5 -6 6 -1 11 2 17 5 13 3
-3 4 -12 1 -19z m1563 19 c0 -2 -10 -12 -22 -23 l-23 -19 19 23 c18 21 26 27
26 19z m-280 -12 c0 -2 -13 -11 -30 -20 -38 -19 -40 -11 -2 9 31 17 32 18 32
11z m-1456 -35 c5 0 23 -12 40 -27 17 -16 43 -36 56 -46 l25 -19 -28 17 c-46
27 -41 12 11 -37 57 -54 92 -96 92 -112 0 -6 -18 8 -39 31 -21 23 -42 39 -47
35 -4 -4 -4 -2 -1 4 3 6 -30 46 -74 89 -43 44 -79 84 -79 89 0 5 8 2 18 -7 10
-10 22 -17 26 -17z m1716 -5 c-12 -13 -28 -23 -34 -22 -6 1 -10 -3 -9 -9 1 -6
-5 -11 -13 -11 -12 0 -11 4 2 18 9 10 20 16 24 14 4 -2 15 4 25 15 10 11 20
20 23 20 3 0 -5 -11 -18 -25z m-1533 -7 c-3 -8 -6 -5 -6 6 -1 11 2 17 5 13 3
-3 4 -12 1 -19z m-297 -13 c10 -14 10 -17 1 -8 -7 6 -21 9 -30 5 -14 -5 -14
-4 -2 11 8 10 14 16 15 15 1 -2 8 -12 16 -23z m397 -47 c-3 -7 -5 -2 -5 12 0
14 2 19 5 13 2 -7 2 -19 0 -25z m-510 0 c-3 -8 -6 -5 -6 6 -1 11 2 17 5 13 3
-3 4 -12 1 -19z m153 -3 c16 -17 19 -25 9 -25 -8 0 -19 11 -26 25 -14 31 -12
31 17 0z m1840 21 c0 -2 -8 -10 -17 -17 -16 -13 -17 -12 -4 4 13 16 21 21 21
13z m-1870 -27 c0 -6 -4 -7 -10 -4 -5 3 -10 11 -10 16 0 6 5 7 10 4 6 -3 10
-11 10 -16z m1713 -50 c-115 -141 -141 -162 -45 -37 33 43 47 68 39 71 -7 3
-2 6 9 6 12 1 27 8 34 16 7 8 14 15 17 15 2 0 -22 -32 -54 -71z m-1826 9 c-3
-8 -6 -5 -6 6 -1 11 2 17 5 13 3 -3 4 -12 1 -19z m1453 12 c0 -5 -5 -10 -11
-10 -5 0 -7 5 -4 10 3 6 8 10 11 10 2 0 4 -4 4 -10z m-1480 -53 c0 -12 0 -11
-24 28 l-17 30 20 -24 c12 -13 21 -28 21 -34z m480 -17 c0 -9 5 -21 10 -26 10
-10 41 -116 36 -121 -1 -2 -13 22 -25 52 -13 30 -26 53 -29 51 -4 -2 -7 6 -7
17 -1 12 -4 40 -8 62 l-6 40 14 -30 c8 -16 14 -37 15 -45z m1520 66 c0 -2 -8
-10 -17 -17 -16 -13 -17 -12 -4 4 13 16 21 21 21 13z m-1456 -32 c7 -19 2 -18
-19 6 -16 17 -16 20 -3 15 9 -4 19 -13 22 -21z m-34 -15 c0 -10 -4 -19 -10
-19 -5 0 -10 12 -10 26 0 14 4 23 10 19 6 -3 10 -15 10 -26z m-355 -8 c-3 -6
-11 -11 -16 -11 -5 0 -4 6 3 14 14 16 24 13 13 -3z m1175 6 c0 -2 -15 -16 -32
-33 l-33 -29 29 33 c28 30 36 37 36 29z m-780 -35 c0 -15 -2 -15 -10 -2 -13
20 -13 33 0 25 6 -3 10 -14 10 -23z m1360 25 c0 -2 -10 -12 -22 -23 l-23 -19
19 23 c18 21 26 27 26 19z m-1843 -13 c-6 -6 38 -103 52 -114 3 -3 15 -16 26
-30 15 -19 16 -22 3 -11 -10 7 -18 9 -18 4 0 -5 14 -19 31 -32 17 -13 28 -25
25 -28 -3 -3 -13 0 -22 8 -12 9 -9 -2 10 -39 16 -32 22 -51 14 -50 -31 7 -9
-27 29 -46 23 -12 42 -25 43 -29 0 -4 -9 -3 -19 3 -26 13 -48 13 -35 0 5 -5
23 -11 39 -12 17 -1 40 -8 53 -16 12 -8 22 -10 22 -6 0 5 4 5 8 -1 4 -5 27
-20 52 -32 45 -22 45 -22 10 -16 -19 3 -65 18 -102 34 -45 18 -68 24 -68 16
-1 -7 -6 -6 -13 4 -7 9 -36 25 -65 35 -28 10 -52 22 -52 25 0 4 19 0 41 -8 23
-7 43 -12 45 -10 2 1 -9 16 -24 32 -15 16 -27 32 -27 35 -2 17 -21 60 -45 99
-28 46 -53 113 -31 81 16 -23 14 4 -4 48 l-16 37 25 -30 c14 -16 25 -27 26
-23 0 14 -23 58 -32 58 -4 0 -8 5 -8 10 0 6 8 10 17 10 9 0 14 -3 10 -6z
m1883 2 c0 -2 -8 -10 -17 -17 -16 -13 -17 -12 -4 4 13 16 21 21 21 13z m-1590
-31 c11 -13 10 -14 -4 -9 -9 3 -16 10 -16 15 0 13 6 11 20 -6z m1205 -15 c-9
-16 -22 -30 -29 -30 -9 0 -4 11 13 30 33 37 35 37 16 0z m-1224 -22 c23 -24
27 -34 18 -42 -9 -8 -10 -8 -5 1 6 12 -9 26 -32 29 -18 3 -29 14 -13 14 7 0 9
5 6 10 -4 6 -11 7 -17 4 -7 -4 -8 -2 -4 4 10 17 15 15 47 -20z m1579 28 c0 -2
-8 -10 -17 -17 -16 -13 -17 -12 -4 4 13 16 21 21 21 13z m-1635 -125 c5 -17 4
-21 -4 -16 -12 7 -9 -31 4 -57 4 -7 -1 -4 -9 6 -18 23 -21 50 -16 149 l2 42 8
-50 c4 -28 11 -61 15 -74z m990 109 c3 -5 -1 -10 -10 -10 -9 0 -13 5 -10 10 3
6 8 10 10 10 2 0 7 -4 10 -10z m-1347 -70 c0 -9 -3 -7 -8 5 -5 11 -8 29 -8 40
0 16 2 15 8 -5 4 -14 8 -32 8 -40z m1606 25 c-4 -8 -10 -15 -16 -15 -5 0 -7
-4 -3 -9 3 -5 -4 -13 -16 -16 -32 -10 -13 -19 33 -16 58 3 44 -6 -24 -17 -58
-9 -105 2 -61 14 13 4 20 10 17 15 -3 5 2 9 10 9 8 0 18 5 22 12 4 7 3 8 -4 4
-7 -4 -12 -2 -12 4 0 6 10 15 23 20 32 13 37 12 31 -5z m200 -5 c-10 -4 -21
-6 -24 -3 -8 7 24 22 34 16 5 -4 1 -10 -10 -13z m-2050 -6 c3 -8 2 -12 -4 -9
-6 3 -10 10 -10 16 0 14 7 11 14 -7z m336 -53 c-1 -11 -50 50 -50 62 0 6 11
-4 25 -23 14 -19 25 -36 25 -39z m432 27 c24 -22 34 -36 23 -30 -23 12 -82 72
-72 72 4 0 26 -19 49 -42z m133 16 c9 -15 12 -23 6 -20 -11 7 -35 46 -28 46 3
0 12 -12 22 -26z m835 6 c0 -5 -8 -10 -17 -10 -15 0 -16 2 -3 10 19 12 20 12
20 0z m433 -20 c-3 -11 -9 -20 -13 -20 -5 0 -17 -3 -27 -7 -14 -5 -13 -1 6 20
29 32 41 34 34 7z m-1450 -5 c-3 -9 -8 -14 -10 -11 -3 3 -2 9 2 15 9 16 15 13
8 -4z m1295 -5 c-7 -11 -17 -20 -22 -20 -5 0 -1 9 9 20 10 11 20 20 22 20 2 0
-2 -9 -9 -20z m-1771 -32 c-3 -7 -5 -2 -5 12 0 14 2 19 5 13 2 -7 2 -19 0 -25z
m698 21 c-4 -5 12 -29 35 -53 l42 -42 3 -100 c2 -87 2 -93 -7 -49 -6 28 -10
71 -9 96 0 33 -6 53 -21 70 -12 13 -30 34 -41 46 -16 18 -17 43 -1 43 3 0 2
-5 -1 -11z m746 1 c15 8 17 7 13 -5 -4 -8 -18 -15 -34 -15 -33 0 -49 17 -23
22 10 2 19 0 21 -4 2 -4 12 -3 23 2z m-1635 -84 c-7 -20 -25 42 -18 65 5 21 7
19 14 -15 5 -22 7 -44 4 -50z m1681 68 c-3 -3 -12 -4 -19 -1 -8 3 -5 6 6 6 11
1 17 -2 13 -5z m329 -37 c-26 -23 -76 -66 -109 -95 -33 -29 -63 -50 -66 -46
-3 3 9 18 28 33 18 14 67 54 110 88 86 70 110 83 37 20z m174 40 c0 -2 -15
-16 -32 -33 l-33 -29 29 33 c28 30 36 37 36 29z m-720 -23 c0 -2 -7 -4 -15 -4
-8 0 -15 4 -15 10 0 5 7 7 15 4 8 -4 15 -8 15 -10z m26 7 c-3 -4 -7 -28 -10
-52 -2 -24 -7 -61 -11 -81 -9 -47 1 -48 38 -6 16 18 25 27 22 19 -4 -7 -2 -16
4 -20 8 -5 -5 -37 -40 -100 -33 -59 -54 -88 -59 -81 -5 8 -12 -8 -19 -39 -15
-70 -14 -74 9 -68 13 3 18 1 13 -6 -4 -6 8 -1 26 12 18 13 35 21 38 17 3 -3
-2 -8 -11 -12 -9 -3 -14 -9 -11 -14 2 -4 -6 -12 -19 -18 -14 -6 -29 -26 -36
-47 -15 -45 -40 -94 -40 -79 0 6 9 36 19 67 21 62 16 73 -12 30 -14 -22 -17
-23 -12 -7 5 21 4 21 -27 10 -18 -6 -39 -15 -45 -19 -8 -5 -13 -4 -13 2 0 6
18 16 40 22 51 16 56 23 63 89 4 30 9 70 13 87 4 20 2 39 -5 47 -8 9 -8 15 -1
18 5 1 13 38 16 81 4 43 11 80 15 83 5 3 9 0 9 -6 0 -6 5 -8 10 -5 15 9 12 25
-5 25 -8 0 -15 6 -15 14 0 9 7 12 20 9 15 -4 20 0 20 16 0 11 5 21 11 21 5 0
8 -4 5 -9z m584 6 c0 -2 -19 -21 -42 -42 l-43 -40 40 43 c36 39 45 47 45 39z
m-1300 -53 c0 -5 -5 -3 -11 3 -6 6 -19 9 -27 5 -14 -5 -15 -4 -2 10 12 12 17
13 27 2 7 -7 13 -16 13 -20z m-417 -29 c23 -32 17 -32 -13 0 -13 14 -19 25
-14 25 5 0 17 -12 27 -25z m575 -15 c4 0 7 -36 8 -80 0 -47 5 -85 12 -92 7 -7
12 -28 11 -47 -1 -30 -4 -24 -19 34 -17 69 -18 70 -22 30 -2 -22 -4 11 -3 74
0 62 1 106 3 97 2 -9 7 -16 10 -16z m732 20 c0 -5 -2 -10 -4 -10 -2 0 -12 -3
-20 -6 -12 -5 -15 -2 -10 10 7 17 34 22 34 6z m-1525 -222 c28 -53 51 -94 53
-90 1 4 -23 65 -53 136 -31 71 -54 130 -52 133 2 2 48 -96 102 -217 54 -121
102 -220 108 -220 6 0 8 -3 4 -6 -8 -8 30 -84 42 -84 5 0 14 -13 21 -30 21
-51 28 -33 13 33 -17 73 -28 175 -19 166 4 -3 9 -24 11 -45 9 -68 36 -189 44
-197 14 -14 100 -36 106 -27 3 5 12 7 20 4 8 -4 13 -10 10 -14 -6 -10 36 -72
53 -78 13 -4 17 28 5 44 -5 5 0 1 9 -9 21 -22 41 -13 33 14 -4 10 -2 19 3 19
6 0 12 -6 14 -12 3 -9 17 -3 44 17 21 16 43 30 49 30 5 0 20 6 33 13 13 7 28
12 35 9 6 -2 -3 -12 -21 -22 -18 -11 -32 -23 -32 -27 0 -4 -10 -8 -22 -8 -13
-1 -36 -12 -53 -26 -16 -15 -24 -23 -16 -19 10 6 12 4 7 -4 -5 -7 -16 -9 -28
-5 -16 5 -20 3 -15 -9 4 -10 0 -13 -13 -10 -10 3 -21 -1 -26 -8 -5 -9 -2 -10
10 -6 10 4 15 3 11 -3 -3 -5 4 -28 17 -50 18 -31 29 -40 51 -40 15 0 27 5 27
10 0 6 -12 11 -27 11 -21 1 -16 4 17 11 25 5 56 12 70 17 22 6 26 4 28 -13 0
-11 -2 -16 -6 -10 -9 15 -74 5 -69 -10 3 -6 9 -10 15 -9 5 1 9 -5 8 -15 -1
-18 10 -19 53 -6 17 5 22 4 17 -4 -10 -17 19 -15 33 1 6 8 9 17 6 20 -3 4 -2
5 2 2 3 -3 16 3 27 12 21 18 21 18 3 -3 -9 -11 -14 -24 -10 -27 3 -4 1 -7 -5
-7 -7 0 -12 -4 -12 -9 0 -4 12 -6 28 -3 15 2 24 2 21 -2 -4 -4 -21 -8 -38 -8
-18 -1 -34 -5 -37 -10 -3 -4 -9 -6 -13 -4 -4 3 -5 -20 -2 -52 3 -31 6 -119 6
-195 0 -75 2 -137 5 -137 9 1 60 90 60 105 0 7 3 15 8 17 4 2 18 25 32 51 32
62 46 71 24 17 -14 -34 -15 -48 -5 -79 6 -21 11 -48 11 -60 0 -18 5 -21 26
-17 18 4 24 1 21 -8 -13 -34 -17 -106 -9 -159 5 -32 5 -60 1 -63 -5 -3 -9 10
-9 28 0 39 -19 77 -21 43 -1 -11 -1 -23 0 -28 0 -4 -4 -7 -10 -7 -7 0 -9 10
-5 28 4 15 9 41 12 57 3 17 10 40 16 51 5 12 8 30 5 40 -4 17 -6 16 -13 -5
l-7 -25 -10 25 c-9 23 -11 32 -15 88 -2 20 -4 21 -17 11 -8 -7 -15 -21 -15
-31 0 -11 -4 -19 -10 -19 -5 0 -10 -7 -10 -15 0 -8 -5 -15 -11 -15 -5 0 -7 -4
-4 -10 3 -5 1 -10 -5 -10 -6 0 -8 -5 -4 -12 4 -6 3 -8 -3 -5 -13 8 -56 -61
-49 -79 9 -23 -23 -24 -38 -1 -72 115 -88 137 -101 137 -8 0 -15 7 -15 16 0 8
4 12 10 9 6 -4 7 1 3 11 -4 11 -8 13 -11 6 -2 -7 -8 -10 -13 -6 -5 3 -9 -3 -9
-14 0 -11 18 -40 41 -66 48 -54 39 -62 -11 -11 -20 21 -40 33 -49 30 -17 -7
-95 74 -122 128 -11 20 -18 37 -15 37 2 0 25 -29 51 -65 27 -36 50 -65 53 -65
6 0 -27 51 -51 77 -11 13 -18 26 -15 29 4 3 11 -4 18 -15 6 -12 17 -21 25 -21
7 0 17 -9 20 -20 3 -11 11 -20 16 -20 6 0 7 -4 4 -10 -4 -6 1 -7 11 -3 13 5
15 15 11 50 -4 42 4 56 19 31 12 -20 23 25 11 47 -9 18 -9 19 6 6 19 -15 23
-46 7 -56 -17 -10 -11 -41 11 -61 11 -10 20 -14 19 -9 -3 15 11 55 19 55 4 0
13 20 20 45 7 25 17 45 22 45 5 0 9 -1 9 -2 0 -8 -48 -119 -54 -125 -13 -13
-5 -44 19 -84 14 -22 30 -37 35 -34 6 3 10 -3 10 -14 0 -12 4 -21 8 -21 5 0
15 38 22 85 10 67 11 110 2 197 -6 65 -15 114 -22 116 -8 3 -8 8 1 18 8 10 8
14 1 14 -6 0 -9 7 -6 15 5 13 2 14 -21 5 -34 -13 -35 -13 -35 5 0 8 -4 15 -10
15 -5 0 -9 -11 -8 -25 2 -22 6 -25 29 -20 19 4 26 2 26 -9 0 -8 -7 -18 -14
-20 -8 -3 -11 -1 -8 4 4 6 -10 10 -33 10 -34 0 -41 4 -52 30 -7 16 -23 36 -35
44 -17 11 -23 24 -22 43 1 20 -2 27 -14 25 -10 -1 -23 16 -38 53 -13 30 -26
57 -31 60 -4 2 -28 -6 -54 -19 -25 -13 -46 -21 -46 -19 0 10 29 33 41 33 22 0
-4 18 -31 22 -18 2 -24 -1 -21 -12 2 -8 3 -23 3 -32 0 -9 17 -37 40 -62 37
-43 41 -45 61 -31 31 22 43 18 16 -4 l-24 -19 30 -33 c21 -22 26 -33 17 -36
-7 -3 -10 -10 -5 -17 4 -6 -4 2 -19 19 -15 16 -28 25 -28 18 0 -7 14 -28 31
-48 18 -20 30 -38 27 -40 -8 -8 -73 87 -70 102 2 8 -5 17 -15 19 -10 3 -30 21
-43 41 -31 45 -39 24 -16 -40 8 -23 17 -60 20 -82 10 -67 16 -98 28 -134 6
-19 12 -51 13 -70 1 -20 5 -58 9 -86 7 -46 6 -49 -8 -31 -18 22 -42 101 -51
171 -4 28 -14 58 -23 68 -9 11 -11 17 -4 17 15 0 16 37 2 45 -6 4 -8 15 -5 25
3 11 1 38 -6 62 -7 24 -11 56 -10 71 3 34 -15 58 -37 50 -13 -4 -14 -3 -6 6 8
9 1 22 -27 53 -20 23 -35 47 -32 55 3 7 -14 43 -36 79 -23 37 -40 68 -39 70 6
5 88 -124 88 -139 0 -17 37 -67 50 -67 5 0 -5 27 -21 61 -17 33 -45 96 -64
140 -27 65 -77 156 -185 339 -16 27 -70 142 -70 149 0 9 67 -108 125 -221z
m1362 200 c-3 -8 -6 -5 -6 6 -1 11 2 17 5 13 3 -3 4 -12 1 -19z m271 5 c-10
-2 -26 -2 -35 0 -10 3 -2 5 17 5 19 0 27 -2 18 -5z m42 3 c0 -3 -4 -8 -10 -11
-5 -3 -10 -1 -10 4 0 6 5 11 10 11 6 0 10 -2 10 -4z m-1823 -38 c-3 -7 -5 -2
-5 12 0 14 2 19 5 13 2 -7 2 -19 0 -25z m1503 -3 c0 -8 -4 -15 -10 -15 -5 0
-7 7 -4 15 4 8 8 15 10 15 2 0 4 -7 4 -15z m300 11 c0 -2 -8 -10 -17 -17 -16
-13 -17 -12 -4 4 13 16 21 21 21 13z m240 -26 c-6 -11 -8 -20 -5 -20 8 0 -138
-171 -167 -196 -24 -20 56 79 104 130 15 17 28 34 28 39 0 10 39 67 46 67 3 0
0 -9 -6 -20z m-1636 -53 c44 -20 81 -35 84 -32 2 2 14 -2 26 -10 11 -8 28 -15
37 -15 9 0 19 -6 22 -14 5 -14 147 -66 178 -66 9 0 29 -6 45 -14 16 -8 50 -17
76 -21 46 -6 48 -5 62 27 l14 33 1 -32 c1 -23 6 -33 17 -33 8 0 12 5 9 10 -3
6 -1 10 5 10 8 0 10 13 5 40 -4 26 -3 40 4 40 14 0 14 -65 0 -92 -9 -18 -8
-24 7 -35 16 -12 19 -11 26 4 6 16 7 16 7 1 1 -9 4 -24 8 -34 5 -14 -2 -11
-29 9 -34 26 -68 35 -68 18 0 -8 -51 4 -233 55 -86 24 -357 151 -387 181 -18
18 -18 18 84 -30z m-391 6 c-8 -2 -14 -25 -15 -51 -1 -45 -1 -46 -5 -8 -5 45
1 66 19 65 10 0 10 -2 1 -6z m1827 3 c0 -3 -4 -8 -10 -11 -5 -3 -10 -1 -10 4
0 6 5 11 10 11 6 0 10 -2 10 -4z m60 -10 c0 -2 -15 -9 -32 -15 -30 -10 -31 -9
-14 4 18 14 46 20 46 11z m-1181 -43 c9 -7 12 -12 6 -12 -19 0 -42 24 -37 39
5 13 6 13 10 0 3 -8 12 -20 21 -27z m1048 -19 c-43 -40 -45 -56 -4 -23 15 11
27 17 27 12 0 -4 -25 -24 -56 -43 -30 -19 -61 -41 -69 -47 -7 -7 -20 -13 -28
-13 -8 0 -20 -7 -27 -15 -11 -13 -10 -14 6 -9 25 10 18 3 -41 -35 l-50 -33 33
31 c18 17 26 31 19 31 -8 0 -27 -14 -43 -31 -54 -57 -79 -79 -87 -79 -4 0 11
22 35 50 24 27 46 50 51 50 4 0 23 10 42 23 35 22 48 44 19 33 -8 -3 -12 -2
-9 4 3 6 17 7 31 4 24 -6 58 11 49 26 -3 4 12 20 33 36 20 15 39 32 40 36 2 4
12 8 22 8 10 0 22 5 25 10 3 6 9 10 13 10 4 0 -10 -17 -31 -36z m-1058 -35
c23 -7 41 -16 41 -21 0 -11 -27 -10 -35 1 -3 5 -19 12 -35 16 -16 4 -33 11
-37 17 -4 7 0 9 9 5 9 -3 34 -11 57 -18z m624 -4 c-3 -9 -8 -14 -10 -11 -3 3
-2 9 2 15 9 16 15 13 8 -4z m-1248 -27 c12 -54 36 -108 46 -102 5 3 8 2 7 -3
-8 -28 36 -163 53 -163 5 0 -1 21 -11 46 -21 47 -26 75 -12 59 5 -6 26 -48 47
-95 21 -47 45 -93 53 -103 9 -9 17 -29 18 -43 2 -14 16 -46 33 -72 16 -26 34
-60 40 -77 l11 -30 -30 35 c-17 19 -30 40 -30 47 0 17 -50 117 -90 179 -64
102 -22 -8 48 -123 17 -29 29 -53 26 -53 -2 0 11 -30 30 -66 19 -37 32 -73 29
-82 -4 -9 -2 -13 4 -9 11 7 56 -80 48 -93 -3 -5 4 -35 15 -67 22 -64 25 -82
10 -67 -5 5 -21 41 -35 79 -13 39 -35 78 -47 89 -13 10 -22 23 -20 27 3 11
-54 63 -162 147 -104 83 -149 122 -144 127 2 3 68 -50 147 -116 79 -66 146
-118 148 -115 3 2 -2 15 -10 28 -9 12 -27 52 -42 88 -14 36 -32 79 -39 95 -7
17 -22 54 -32 83 -14 40 -20 49 -25 35 -4 -11 -6 -5 -6 18 1 20 -10 57 -26 86
-14 28 -24 53 -22 55 3 3 -9 41 -25 87 -32 88 -35 101 -21 101 5 0 13 -15 16
-32z m2351 -27 c-20 -27 -36 -52 -36 -57 0 -4 -18 -29 -40 -55 -44 -52 -53
-74 -17 -42 12 11 33 26 47 33 16 8 8 -3 -20 -28 -25 -23 -48 -41 -52 -42 -8
0 -88 -106 -88 -116 0 -3 6 -3 13 2 7 5 3 0 -9 -11 -25 -23 -78 -105 -67 -104
11 1 70 36 152 92 40 26 74 47 78 47 10 0 -81 -65 -146 -105 -103 -63 -122
-84 -225 -268 -15 -27 -35 -51 -44 -54 -9 -4 -19 -9 -22 -12 -3 -3 -16 -12
-30 -20 l-25 -14 24 27 c14 14 30 26 37 26 7 0 16 5 19 10 14 23 -38 1 -73
-31 l-37 -34 34 38 c19 20 29 37 22 37 -14 0 -91 -79 -91 -92 0 -5 -22 -35
-49 -69 -27 -34 -80 -107 -117 -163 -76 -114 -84 -124 -84 -110 0 5 25 47 55
92 30 45 50 82 45 82 -12 0 -13 27 -1 32 7 2 66 73 115 137 6 8 -9 2 -34 -13
-25 -15 -73 -44 -107 -64 -35 -20 -63 -41 -63 -46 0 -10 -192 -196 -202 -196
-4 0 -5 7 -2 15 8 20 -5 19 -28 -2 -23 -20 -24 -40 -1 -22 11 9 14 10 9 2 -4
-7 -16 -18 -27 -23 -41 -22 -18 19 47 84 37 36 65 66 62 66 -2 0 -39 -17 -81
-38 -42 -22 -77 -36 -77 -33 0 4 7 17 16 29 18 26 56 53 199 139 38 22 10 21
-37 -1 -26 -13 -50 -20 -54 -17 -3 3 -12 -3 -20 -13 -7 -11 -17 -17 -20 -13
-3 3 13 25 36 49 24 25 37 34 30 21 -12 -26 -18 -28 132 35 115 49 138 56 138
44 0 -6 -33 -28 -73 -50 -69 -38 -111 -72 -89 -72 5 0 15 7 22 15 7 8 18 15
24 15 6 0 64 33 128 73 l117 72 148 185 c194 244 205 257 198 243 -3 -6 -1
-14 5 -18 5 -3 10 0 10 8 0 7 11 24 25 37 14 13 25 28 25 33 0 5 16 27 35 50
19 22 32 43 29 46 -7 7 -74 -69 -74 -85 0 -6 -11 -21 -25 -34 -14 -13 -25 -19
-25 -13 0 6 7 16 14 23 17 13 58 80 50 80 -23 0 -76 -35 -99 -64 -15 -20 -33
-36 -39 -36 -7 0 -27 -16 -46 -35 -19 -19 -29 -35 -24 -35 6 0 19 9 29 20 10
11 21 18 24 15 4 -2 20 5 37 16 16 10 33 19 39 19 5 0 -15 -16 -45 -36 -30
-20 -86 -67 -125 -104 -97 -94 -214 -171 -426 -282 -19 -10 -68 -52 -108 -94
-40 -41 -76 -72 -79 -69 -3 3 9 20 26 38 29 30 32 37 27 82 -2 26 -6 49 -7 49
-2 1 -49 0 -105 -2 -99 -4 -102 -4 -94 -25 5 -12 11 -40 15 -62 9 -54 -9 -27
-30 45 -9 30 -24 64 -33 75 -10 11 -21 28 -24 37 -7 20 -37 18 -132 -8 -33 -9
-71 -18 -85 -21 -22 -4 -23 -3 -7 7 13 8 15 15 7 30 -14 26 -13 30 11 30 16 0
19 5 15 20 -17 57 -18 64 -11 57 5 -4 15 -23 24 -43 l16 -36 53 53 c28 29 52
57 52 62 0 4 4 6 9 3 5 -3 15 2 22 11 8 10 9 14 2 10 -6 -4 -14 -3 -17 2 -4 5
-2 12 4 16 15 9 35 -16 38 -48 5 -49 37 -122 52 -119 11 2 11 0 1 -11 -15 -19
1 -64 26 -70 55 -14 169 -4 157 14 -3 5 -15 7 -27 3 -19 -6 -20 -5 -5 10 9 9
24 13 32 10 18 -7 20 7 10 69 -5 30 -9 35 -20 26 -18 -14 -18 -69 -1 -69 6 0
3 -6 -7 -12 -12 -7 -21 -7 -23 -2 -2 6 -20 9 -41 8 l-37 -3 35 7 c41 8 49 32
26 85 -12 31 -12 35 0 30 8 -3 14 -16 14 -29 0 -29 16 -32 25 -4 3 11 9 20 13
20 11 0 42 -60 42 -80 0 -22 18 -36 49 -38 14 0 37 -6 53 -13 28 -11 32 -9 76
32 25 24 39 35 29 23 -9 -11 -17 -23 -17 -25 0 -9 40 -8 45 2 3 5 -2 6 -12 3
-15 -5 -15 -4 -3 5 9 5 22 11 29 13 8 2 21 9 30 16 9 7 41 30 72 50 84 55 138
96 139 105 0 4 -9 3 -19 -2 -36 -20 -194 -81 -207 -81 -20 0 -17 17 4 24 9 3
27 10 40 16 17 7 21 7 16 -2 -9 -14 -4 -12 123 44 75 33 112 57 176 115 45 41
83 78 85 83 2 5 -24 -4 -58 -21 -33 -16 -62 -29 -64 -29 -5 0 -346 -167 -389
-190 -15 -9 -41 -28 -57 -44 -17 -15 -27 -21 -24 -13 3 10 -2 18 -16 22 -12 4
-19 9 -17 12 3 2 14 0 25 -6 15 -8 21 -7 25 2 3 8 40 31 84 52 136 67 355 170
433 205 41 19 82 40 91 47 8 7 22 13 29 13 32 0 121 53 147 88 46 62 95 122
100 122 3 0 -11 -22 -31 -49z m-1949 23 c-3 -3 -12 -4 -19 -1 -8 3 -5 6 6 6
11 1 17 -2 13 -5z m-470 -49 c6 -19 8 -35 3 -35 -4 0 -6 -21 -4 -47 3 -41 2
-43 -5 -18 -13 44 -21 135 -12 135 4 0 12 -16 18 -35z m2419 -73 c-11 -9 -15
-11 -11 -3 6 10 2 12 -16 6 l-24 -6 25 20 c31 25 54 10 26 -17z m-1506 13 c14
-8 21 -14 15 -14 -5 0 -21 6 -35 14 -14 8 -20 14 -15 14 6 0 21 -6 35 -14z
m-830 -30 c0 -5 -5 -3 -10 5 -5 8 -10 20 -10 25 0 6 5 3 10 -5 5 -8 10 -19 10
-25z m747 29 c-3 -3 -12 -4 -19 -1 -8 3 -5 6 6 6 11 1 17 -2 13 -5z m234 -31
c13 -16 12 -17 -3 -4 -10 7 -18 15 -18 17 0 8 8 3 21 -13z m-1 -50 c0 -7 -39
17 -46 28 -3 6 5 3 20 -6 14 -10 26 -19 26 -22z m-983 -5 c-3 -8 -6 -5 -6 6
-1 11 2 17 5 13 3 -3 4 -12 1 -19z m1283 -227 c-5 -11 -15 -23 -21 -27 -6 -3
-3 5 6 20 20 30 30 35 15 7z m-444 -64 c-50 -46 -77 -78 -72 -85 4 -7 3 -12
-1 -12 -5 0 -24 28 -42 63 l-32 62 29 -32 c17 -18 32 -38 34 -45 5 -14 88 63
88 82 0 8 51 37 70 39 3 0 -31 -32 -74 -72z m914 58 c0 -2 -13 -11 -30 -20
-38 -19 -40 -11 -2 9 31 17 32 18 32 11z m-385 -25 c-3 -5 -1 -10 4 -10 6 0
11 -5 11 -11 0 -5 -5 -7 -10 -4 -6 4 -18 1 -27 -7 -14 -11 -16 -11 -8 2 12 21
27 40 32 40 2 0 1 -4 -2 -10z m-130 -37 c-5 -10 -7 -22 -6 -26 1 -5 -2 -6 -7
-3 -5 3 -22 -8 -37 -24 -16 -17 -33 -30 -38 -30 -6 0 12 24 39 53 50 54 63 62
49 30z m-631 -29 c10 -25 -1 -29 -14 -5 -6 12 -7 21 -1 21 5 0 12 -7 15 -16z
m912 -71 c-6 -7 -76 20 -76 28 0 4 -9 11 -20 14 -11 3 -20 10 -20 15 0 4 27
-6 60 -22 33 -17 58 -33 56 -35z m-886 33 c0 -3 -4 -8 -10 -11 -5 -3 -10 -1
-10 4 0 6 5 11 10 11 6 0 10 -2 10 -4z m-160 -20 c0 -2 -7 -7 -16 -10 -8 -3
-12 -2 -9 4 6 10 25 14 25 6z m970 -9 c0 -2 -10 -12 -21 -23 -22 -19 -22 -19
-8 4 12 19 29 30 29 19z m18 -27 c-7 -10 -14 -17 -17 -15 -4 4 18 35 25 35 2
0 -1 -9 -8 -20z m-408 -45 c10 -12 10 -15 -4 -15 -9 0 -16 7 -16 15 0 8 2 15
4 15 2 0 9 -7 16 -15z m-488 -94 c1 -17 7 -31 13 -31 6 0 5 -3 -2 -8 -6 -4
-13 -25 -16 -47 l-4 -40 -1 45 c-1 25 -9 55 -17 68 -14 20 -14 21 -1 16 13 -5
15 0 10 27 -4 26 -3 30 5 18 6 -9 12 -30 13 -48z m488 49 c0 -5 -4 -10 -10
-10 -5 0 -10 5 -10 10 0 6 5 10 10 10 6 0 10 -4 10 -10z m960 6 c0 -2 -7 -7
-16 -10 -8 -3 -12 -2 -9 4 6 10 25 14 25 6z m-1499 -23 c13 -16 12 -17 -3 -4
-10 7 -18 15 -18 17 0 8 8 3 21 -13z m120 -33 c10 -22 16 -40 14 -40 -5 0 -45
76 -45 86 0 14 13 -6 31 -46z m412 -17 c2 -24 0 -40 -4 -37 -5 3 -9 24 -9 46
0 51 6 47 13 -9z m-335 -23 c-7 -10 -14 -18 -15 -16 -6 6 9 36 18 36 5 0 4 -9
-3 -20z m-268 -78 c0 -21 -13 -6 -28 33 l-12 30 20 -24 c11 -13 20 -30 20 -39z
m675 -16 c-10 -14 -15 -26 -11 -26 3 0 -8 -24 -24 -54 -17 -30 -30 -61 -30
-70 0 -9 -4 -16 -10 -16 -14 0 -13 6 15 61 26 53 24 62 -6 27 -17 -20 -19 -20
-10 -3 5 11 26 38 45 59 20 22 36 44 36 49 0 6 3 8 6 5 3 -4 -2 -18 -11 -32z
m35 9 c-17 -20 -1 -19 22 2 18 16 18 16 12 0 -3 -9 -10 -17 -15 -17 -5 0 -16
-15 -25 -32 -16 -32 -16 -32 1 -18 17 14 17 13 10 -10 -4 -14 -14 -36 -22 -50
-13 -25 -14 -24 -8 10 6 33 5 34 -10 16 -8 -11 -15 -29 -16 -40 0 -12 -3 -15
-6 -8 -2 6 -9 10 -14 7 -14 -10 3 29 22 47 9 9 20 32 24 50 7 31 22 58 32 58
3 0 0 -7 -7 -15z m-140 -18 c0 -2 -10 -12 -22 -23 l-23 -19 19 23 c18 21 26
27 26 19z m-303 -29 c-3 -8 -6 -5 -6 6 -1 11 2 17 5 13 3 -3 4 -12 1 -19z
m1033 -5 c0 -5 -10 -19 -21 -33 l-21 -25 18 33 c18 32 24 38 24 25z m-792 -33
c-5 -17 -14 -33 -20 -36 -6 -4 -5 3 1 15 7 11 9 21 5 21 -3 0 -1 7 6 15 18 22
20 19 8 -15z m272 -10 c0 -5 -5 -10 -11 -10 -5 0 -7 5 -4 10 3 6 8 10 11 10 2
0 4 -4 4 -10z m-521 -38 c5 -10 6 -24 2 -31 -6 -9 -10 -3 -13 18 -5 36 -3 38
11 13z m494 -19 c-15 -20 -27 -38 -25 -40 5 -8 1 -43 -6 -43 -4 0 -13 9 -20
20 -10 17 -7 24 30 60 23 22 44 40 46 40 1 0 -10 -17 -25 -37z m487 3 c0 -2
-8 -10 -17 -17 -16 -13 -17 -12 -4 4 13 16 21 21 21 13z m-833 -48 c-3 -8 -6
-5 -6 6 -1 11 2 17 5 13 3 -3 4 -12 1 -19z m763 18 c0 -2 -8 -10 -17 -17 -16
-13 -17 -12 -4 4 13 16 21 21 21 13z m-830 -67 c0 -6 -4 -7 -10 -4 -5 3 -10
11 -10 16 0 6 5 7 10 4 6 -3 10 -11 10 -16z m530 -21 c0 -19 -2 -20 -10 -8
-13 19 -13 30 0 30 6 0 10 -10 10 -22z m-335 -18 c-9 -16 -18 -30 -21 -30 -2
0 2 14 11 30 9 17 18 30 21 30 2 0 -2 -13 -11 -30z"/>
<path d="M1079 2521 c22 -43 37 -82 33 -86 -4 -5 -1 -4 7 0 11 6 13 4 8 -8 -3
-10 -3 -17 2 -17 20 0 17 15 -13 68 -17 31 -38 72 -45 90 -7 17 -17 32 -22 32
-5 0 9 -35 30 -79z"/>
<path d="M1030 2575 c0 -13 42 -86 46 -82 6 5 -33 87 -41 87 -3 0 -5 -2 -5 -5z"/>
<path d="M2152 2365 c0 -16 2 -22 5 -12 2 9 2 23 0 30 -3 6 -5 -1 -5 -18z"/>
<path d="M2140 2268 l1 -63 16 29 c21 39 34 86 23 86 -5 0 -11 -6 -13 -12 -3
-8 -6 -6 -6 5 -1 9 -5 17 -11 17 -6 0 -10 -27 -10 -62z"/>
<path d="M1046 1841 c-3 -4 1 -17 8 -27 13 -17 14 -17 9 9 -6 29 -9 32 -17 18z"/>
<path d="M1390 1550 c0 -5 5 -10 10 -10 6 0 10 5 10 10 0 6 -4 10 -10 10 -5 0
-10 -4 -10 -10z"/>
<path d="M1400 1520 c0 -5 7 -10 16 -10 8 0 12 5 9 10 -3 6 -10 10 -16 10 -5
0 -9 -4 -9 -10z"/>
<path d="M1320 1181 c0 -5 5 -13 10 -16 6 -3 10 -2 10 4 0 5 -4 13 -10 16 -5
3 -10 2 -10 -4z"/>
<path d="M2384 2205 c-10 -8 -14 -15 -8 -15 6 0 17 7 24 15 16 19 9 19 -16 0z"/>
<path d="M2866 1823 c-8 -15 -40 -57 -70 -93 -31 -36 -56 -71 -56 -77 0 -7 -3
-13 -8 -13 -8 0 -112 -135 -112 -145 0 -4 9 -3 20 0 12 4 20 2 20 -5 0 -28 41
16 86 92 27 46 51 88 53 93 2 6 16 28 31 50 15 22 30 47 33 55 4 8 14 25 22
37 10 13 12 23 6 27 -6 4 -17 -6 -25 -21z"/>
<path d="M2699 1782 c-56 -42 -189 -154 -189 -160 0 -12 180 120 219 162 32
34 16 33 -30 -2z"/>
<path d="M1782 1636 c-37 -36 -64 -67 -61 -71 3 -3 30 0 58 6 29 6 66 9 82 7
19 -3 29 0 29 8 0 30 -24 114 -33 114 -5 0 -39 -29 -75 -64z m86 -17 c-3 -8
-7 -3 -11 10 -4 17 -3 21 5 13 5 -5 8 -16 6 -23z"/>
<path d="M1670 1571 c0 -5 7 -12 16 -15 24 -9 27 -7 10 9 -17 17 -26 19 -26 6z"/>
<path d="M2160 1521 c0 -6 4 -13 10 -16 6 -3 7 1 4 9 -7 18 -14 21 -14 7z"/>
<path d="M2190 1521 c0 -5 11 -8 25 -8 13 0 22 3 19 8 -3 5 -14 9 -25 9 -10 0
-19 -4 -19 -9z"/>
<path d="M2188 1493 c-13 -3 -18 -15 -18 -39 0 -42 8 -42 48 -3 42 42 30 58
-30 42z"/>
<path d="M2185 1245 c-16 -13 -25 -24 -20 -25 6 0 24 11 40 25 17 13 26 24 20
25 -5 0 -23 -11 -40 -25z"/>
<path d="M2261 1249 c-13 -10 -29 -19 -35 -19 -15 0 -131 -119 -123 -126 7 -8
72 42 108 83 14 16 38 38 55 50 16 12 27 24 24 26 -3 3 -16 -3 -29 -14z"/>
</g>
</svg>
